<?xml version="1.0" encoding="UTF-8" standalone="no"?>
<!-- Created with Inkscape (http://www.inkscape.org/) -->

<svg
   xmlns:dc="http://purl.org/dc/elements/1.1/"
   xmlns:cc="http://creativecommons.org/ns#"
   xmlns:rdf="http://www.w3.org/1999/02/22-rdf-syntax-ns#"
   xmlns:svg="http://www.w3.org/2000/svg"
   xmlns="http://www.w3.org/2000/svg"
   xmlns:sodipodi="http://sodipodi.sourceforge.net/DTD/sodipodi-0.dtd"
   xmlns:inkscape="http://www.inkscape.org/namespaces/inkscape"
   version="1.1"
   id="svg2"
   width="193.63176"
   height="72"
   viewBox="0 0 193.63176 72.000001"
   sodipodi:docname="pace-logo.svg"
   inkscape:version="0.92.4 (5da689c313, 2019-01-14)">
  <metadata
     id="metadata8">
    <rdf:RDF>
      <cc:Work
         rdf:about="">
        <dc:format>image/svg+xml</dc:format>
        <dc:type
           rdf:resource="http://purl.org/dc/dcmitype/StillImage" />
        <dc:title></dc:title>
      </cc:Work>
    </rdf:RDF>
  </metadata>
  <defs
     id="defs6" />
  <sodipodi:namedview
     pagecolor="#ffffff"
     bordercolor="#666666"
     borderopacity="1"
     objecttolerance="10"
     gridtolerance="10"
     guidetolerance="10"
     inkscape:pageopacity="0"
     inkscape:pageshadow="2"
     inkscape:window-width="1366"
     inkscape:window-height="705"
     id="namedview4"
     showgrid="false"
     inkscape:snap-text-baseline="false"
     fit-margin-top="0"
     fit-margin-left="0"
     fit-margin-right="0"
     fit-margin-bottom="0"
     inkscape:zoom="2"
     inkscape:cx="85.64517"
     inkscape:cy="59.565346"
     inkscape:window-x="-8"
     inkscape:window-y="-8"
     inkscape:window-maximized="1"
     inkscape:current-layer="svg2" />
  <g
     id="g2941"
     transform="matrix(1.2955827,0,0,1.3011222,98.970393,-12.102851)">
    <g
       id="g3206"
       transform="translate(14.75,-16.25)">
      <g
         id="g3151">
        <g
           id="g3097">
          <g
             id="g3044">
            <g
               id="g2992">
              <path
                 inkscape:connector-curvature="0"
                 id="path2206"
                 d="m -70.210037,71.813222 -5.95996,-6 h 2.97998 c 2.94331,0 2.97998,-0.03938 2.97998,-3.2 0,-3.12381 -0.0667,-3.2 -2.8,-3.2 -2.57778,0 -2.8,0.190476 -2.8,2.4 0,1.32 -0.27966,2.4 -0.62146,2.4 -0.3418,0 -3.09651,-2.494176 -6.12159,-5.542613 l -5.50014,-5.542613 5.0484,-5.257387 c 5.41916,-5.643496 7.19479,-6.447398 7.19479,-3.257388 0,1.752381 0.34667,2 2.8,2 2.66667,0 2.8,-0.133333 2.8,-2.8 0,-2.701149 -0.10568,-2.8 -2.99355,-2.8 h -2.99355 l 6.19355,-6.193548 6.19355,-6.193549 6.193548,6.193549 6.193549,6.193548 h -2.993549 c -2.887865,0 -2.993548,0.09885 -2.993548,2.8 0,2.733334 0.07619,2.8 3.2,2.8 2.88,0 3.2,-0.2 3.2,-2 0,-3.135807 1.645408,-2.404408 7.200827,3.200835 l 5.154606,5.200834 -5.556261,5.599166 c -3.055943,3.079541 -5.835916,5.599166 -6.177716,5.599166 -0.341801,0 -0.621456,-1.08 -0.621456,-2.4 0,-2.266667 -0.177778,-2.4 -3.2,-2.4 h -3.2 v 3.2 c 0,3.160622 0.03667,3.2 2.979978,3.2 h 2.979978 l -5.959956,6 c -3.277976,3.3 -6.157976,6 -6.4,6 -0.242024,0 -3.12202,-2.7 -6.4,-6 z"
                 style="fill:#4e80bc;stroke-width:0.80000001" />
              <path
                 inkscape:connector-curvature="0"
                 id="path2200"
                 d="m -70.154687,71.868944 -5.90461,-5.944278 3.12463,-0.255722 c 3.06945,-0.251206 3.12463,-0.312236 3.12463,-3.455722 0,-3.12381 -0.0667,-3.2 -2.8,-3.2 -2.57422,0 -2.82021,0.209654 -3.05069,2.6 -0.13787,1.43 -0.50753,2.6 -0.82145,2.6 -0.31393,0 -3.04583,-2.494176 -6.07091,-5.542613 l -5.50014,-5.542613 5.0484,-5.257387 c 2.77662,-2.891564 5.50743,-5.257388 6.06846,-5.257388 0.56103,0 1.13397,0.99 1.27319,2.2 0.22239,1.932736 0.59329,2.2 3.05314,2.2 2.66667,0 2.8,-0.133333 2.8,-2.8 0,-2.636763 -0.17665,-2.823319 -3.0301,-3.2 l -3.03011,-0.4 6.03011,-5.979978 6.0301,-5.979978 6.030104,5.979978 6.030103,5.979978 -3.030103,0.4 c -2.853452,0.376681 -3.030104,0.563237 -3.030104,3.2 0,2.733334 0.07619,2.8 3.2,2.8 2.896209,0 3.224031,-0.208856 3.453138,-2.2 0.139226,-1.21 0.689625,-2.2 1.223111,-2.2 0.533485,0 3.289545,2.340376 6.124578,5.200835 l 5.154606,5.200834 -5.556261,5.599166 c -3.055943,3.079541 -5.813106,5.599166 -6.12703,5.599166 -0.313923,0 -0.683577,-1.17 -0.821456,-2.6 -0.237016,-2.45822 -0.425186,-2.6 -3.450686,-2.6 h -3.2 v 3.2 c 0,3.143486 0.05518,3.204516 3.124628,3.455722 l 3.124627,0.255722 -5.904605,5.944278 c -3.247533,3.269353 -6.102626,5.944278 -6.34465,5.944278 -0.242024,0 -3.09712,-2.674925 -6.34465,-5.944278 z m 9.54465,-0.855722 c 2.034895,-2.099479 2.374381,-2.8 1.356934,-2.8 -1.07008,0 -1.356934,-0.743271 -1.356934,-3.515972 v -3.515971 l -3.2,-0.305168 -3.2,-0.30517 v 3.821141 c 0,3.059647 -0.27042,3.82114 -1.35693,3.82114 -1.01745,0 -0.67797,0.700521 1.35693,2.8 1.49263,1.540001 2.932626,2.8 3.2,2.8 0.267374,0 1.707374,-1.26 3.2,-2.8 z m -12.74286,-14.8 c 3.13334,0 3.14286,-0.0097 3.14286,-3.200001 v -3.2 h -3.56025 c -2.34252,0 -3.79135,-0.412961 -4.23592,-1.207368 -0.55344,-0.988938 -1.16795,-0.699476 -3.39669,1.6 l -2.72101,2.807368 2.66475,2.749326 c 2.31645,2.389969 2.81498,2.5991 3.81408,1.6 0.63213,-0.632129 2.56361,-1.149325 4.29218,-1.149325 z m 27.950353,-5.992269 c -2.239926,-2.311017 -2.85808,-2.603683 -3.41132,-1.615099 -0.444572,0.794407 -1.893406,1.207368 -4.235925,1.207368 h -3.560248 v 3.2 c 0,3.194691 0.0053,3.200001 3.168458,3.200001 1.742653,0 3.632653,0.516112 4.2,1.146918 0.88108,0.979627 1.435805,0.748453 3.80311,-1.584902 l 2.771568,-2.731819 z m -17.447493,-5.207732 c 2.08,0 2.24,-0.228571 2.24,-3.2 0,-2.502564 0.302222,-3.2 1.386666,-3.2 1.029842,0 0.61812,-0.768547 -1.6,-2.986666 l -2.986666,-2.986667 -2.98667,2.986667 c -2.21812,2.218119 -2.62984,2.986666 -1.6,2.986666 1.13778,0 1.38667,0.746667 1.38667,4.16 0,3.235556 0.21333,3.946667 0.96,3.2 0.528,-0.528 1.968,-0.96 3.2,-0.96 z"
                 style="fill:#4c7db7;stroke-width:0.80000001" />
              <path
                 inkscape:connector-curvature="0"
                 id="path2198"
                 d="m -70.154687,71.868944 -5.90461,-5.944278 3.12463,-0.255722 c 3.06945,-0.251206 3.12463,-0.312236 3.12463,-3.455722 0,-3.12381 -0.0667,-3.2 -2.8,-3.2 -2.57422,0 -2.82021,0.209654 -3.05069,2.6 -0.13787,1.43 -0.50753,2.6 -0.82145,2.6 -0.31393,0 -3.04583,-2.494176 -6.07091,-5.542613 l -5.50014,-5.542613 5.0484,-5.257387 c 2.77662,-2.891564 5.50743,-5.257388 6.06846,-5.257388 0.56103,0 1.13397,0.99 1.27319,2.2 0.22239,1.932736 0.59329,2.2 3.05314,2.2 2.66667,0 2.8,-0.133333 2.8,-2.8 0,-2.636763 -0.17665,-2.823319 -3.0301,-3.2 l -3.03011,-0.4 6.03011,-5.979978 6.0301,-5.979978 6.030104,5.979978 6.030103,5.979978 -3.030103,0.4 c -2.853452,0.376681 -3.030104,0.563237 -3.030104,3.2 0,2.733334 0.07619,2.8 3.2,2.8 2.896209,0 3.224031,-0.208856 3.453138,-2.2 0.139226,-1.21 0.689625,-2.2 1.223111,-2.2 0.533485,0 3.289545,2.340376 6.124578,5.200835 l 5.154606,5.200834 -5.556261,5.599166 c -3.055943,3.079541 -5.813106,5.599166 -6.12703,5.599166 -0.313923,0 -0.683577,-1.17 -0.821456,-2.6 -0.237016,-2.45822 -0.425186,-2.6 -3.450686,-2.6 h -3.2 v 3.2 c 0,3.143486 0.05518,3.204516 3.124628,3.455722 l 3.124627,0.255722 -5.904605,5.944278 c -3.247533,3.269353 -6.102626,5.944278 -6.34465,5.944278 -0.242024,0 -3.09712,-2.674925 -6.34465,-5.944278 z m 9.54465,-0.855722 c 2.034895,-2.099479 2.374381,-2.8 1.356934,-2.8 -1.074884,0 -1.356934,-0.748289 -1.356934,-3.6 0,-3.274199 -0.17508,-3.6 -1.93457,-3.6 -1.064013,0 -2.50401,-0.218516 -3.2,-0.485592 -1.05211,-0.403731 -1.26543,0.203151 -1.26543,3.6 0,3.30831 -0.25816,4.085592 -1.35693,4.085592 -1.01745,0 -0.67797,0.700521 1.35693,2.8 1.49263,1.540001 2.932626,2.8 3.2,2.8 0.267374,0 1.707374,-1.26 3.2,-2.8 z m -12.53701,-14.8 c 2.89318,0 2.93701,-0.04776 2.93701,-3.200001 v -3.2 h -3.56025 c -2.34252,0 -3.79135,-0.412961 -4.23592,-1.207368 -0.55344,-0.988938 -1.16795,-0.699476 -3.39669,1.6 l -2.72101,2.807368 2.70456,2.790394 c 2.42952,2.506625 2.83832,2.669337 4.01993,1.6 0.72345,-0.654717 2.63702,-1.190393 4.25237,-1.190393 z m 27.744503,-5.992269 c -2.239926,-2.311017 -2.85808,-2.603683 -3.41132,-1.615099 -0.444572,0.794407 -1.893406,1.207368 -4.235925,1.207368 h -3.560248 v 3.2 c 0,3.194691 0.0053,3.200001 3.168458,3.200001 1.742653,0 3.632653,0.516112 4.2,1.146918 0.88108,0.979627 1.435805,0.748453 3.80311,-1.584902 l 2.771568,-2.731819 z m -17.447493,-5.207732 c 2.08,0 2.24,-0.228571 2.24,-3.2 0,-2.502564 0.302222,-3.2 1.386666,-3.2 1.029842,0 0.61812,-0.768547 -1.6,-2.986666 l -2.986666,-2.986667 -2.98667,2.986667 c -2.21812,2.218119 -2.62984,2.986666 -1.6,2.986666 1.13778,0 1.38667,0.746667 1.38667,4.16 0,3.235556 0.21333,3.946667 0.96,3.2 0.528,-0.528 1.968,-0.96 3.2,-0.96 z"
                 style="fill:#4b7cb5;stroke-width:0.80000001" />
              <path
                 inkscape:connector-curvature="0"
                 id="path2196"
                 d="m -70.154687,71.868944 -5.90461,-5.944278 3.12463,-0.255722 c 3.06945,-0.251206 3.12463,-0.312236 3.12463,-3.455722 0,-3.12381 -0.0667,-3.2 -2.8,-3.2 -2.57422,0 -2.82021,0.209654 -3.05069,2.6 -0.13787,1.43 -0.50753,2.6 -0.82145,2.6 -0.31393,0 -3.04583,-2.494176 -6.07091,-5.542613 l -5.50014,-5.542613 5.0484,-5.257387 c 2.77662,-2.891564 5.50743,-5.257388 6.06846,-5.257388 0.56103,0 1.13397,0.99 1.27319,2.2 0.22239,1.932736 0.59329,2.2 3.05314,2.2 2.66667,0 2.8,-0.133333 2.8,-2.8 0,-2.636763 -0.17665,-2.823319 -3.0301,-3.2 l -3.03011,-0.4 6.03011,-5.979978 6.0301,-5.979978 6.030104,5.979978 6.030103,5.979978 -3.030103,0.4 c -2.853452,0.376681 -3.030104,0.563237 -3.030104,3.2 0,2.733334 0.07619,2.8 3.2,2.8 2.896209,0 3.224031,-0.208856 3.453138,-2.2 0.139226,-1.21 0.689625,-2.2 1.223111,-2.2 0.533485,0 3.289545,2.340376 6.124578,5.200835 l 5.154606,5.200834 -5.556261,5.599166 c -3.055943,3.079541 -5.813106,5.599166 -6.12703,5.599166 -0.313923,0 -0.683577,-1.17 -0.821456,-2.6 -0.237016,-2.45822 -0.425186,-2.6 -3.450686,-2.6 h -3.2 v 3.2 c 0,3.143486 0.05518,3.204516 3.124628,3.455722 l 3.124627,0.255722 -5.904605,5.944278 c -3.247533,3.269353 -6.102626,5.944278 -6.34465,5.944278 -0.242024,0 -3.09712,-2.674925 -6.34465,-5.944278 z m 9.839048,-0.347575 c 2.801662,-2.869163 2.899786,-3.123058 1.362357,-3.525105 -1.335305,-0.349189 -1.656755,-1.068658 -1.656755,-3.708146 0,-2.930353 -0.203531,-3.274896 -1.93457,-3.274896 -1.064013,0 -2.50401,-0.218516 -3.2,-0.485592 -1.04331,-0.400353 -1.26543,0.174498 -1.26543,3.274896 0,3.130625 -0.2775,3.833055 -1.65676,4.193738 -1.53742,0.402047 -1.4393,0.655942 1.36236,3.525105 1.66052,1.700519 3.232994,3.091853 3.4944,3.091853 0.261406,0 1.833885,-1.391334 3.494398,-3.091853 z M -73.364677,56.213222 c 3.14708,0 3.15464,-0.0077 3.15464,-3.200001 0,-3.19469 -0.005,-3.2 -3.16846,-3.2 -1.74265,0 -3.63265,-0.511712 -4.2,-1.13714 -0.87751,-0.967344 -1.47979,-0.703906 -4.0335,1.764268 l -3.00195,2.901408 2.94237,3.013264 c 2.84373,2.912242 2.97942,2.960376 4.04732,1.435732 0.78205,-1.116532 2.02682,-1.577531 4.25958,-1.577531 z m 28.190525,-5.76807 c -2.414738,-2.472915 -3.093611,-2.815126 -3.641707,-1.835732 -0.442378,0.790484 -1.896069,1.203801 -4.23393,1.203801 h -3.560248 v 3.2 c 0,3.109226 0.07757,3.200001 2.73457,3.200001 3.633488,0 5.26543,0.696718 5.26543,2.247949 0,0.860901 1.042934,0.25837 3.201955,-1.849859 l 3.201955,-3.126626 z m -17.675885,-5.431931 c 2.020522,0 2.24,-0.270451 2.24,-2.760247 0,-1.629238 0.494718,-3.037105 1.207368,-3.435925 0.988938,-0.553437 0.699476,-1.167946 -1.6,-3.396685 l -2.807368,-2.721009 -2.80737,2.721009 c -2.29947,2.228739 -2.58894,2.843248 -1.6,3.396685 0.80654,0.451362 1.20737,1.910749 1.20737,4.395925 0,2.893527 0.21333,3.506915 0.96,2.760247 0.528,-0.527999 1.968,-0.96 3.2,-0.96 z"
                 style="fill:#4b7bb4;stroke-width:0.80000001" />
              <path
                 inkscape:connector-curvature="0"
                 id="path2194"
                 d="m -70.154687,71.868944 -5.90461,-5.944278 3.12463,-0.255722 c 3.06945,-0.251206 3.12463,-0.312236 3.12463,-3.455722 0,-3.12381 -0.0667,-3.2 -2.8,-3.2 -2.57422,0 -2.82021,0.209654 -3.05069,2.6 -0.13787,1.43 -0.50753,2.6 -0.82145,2.6 -0.31393,0 -3.04583,-2.494176 -6.07091,-5.542613 l -5.50014,-5.542613 5.0484,-5.257387 c 2.77662,-2.891564 5.50743,-5.257388 6.06846,-5.257388 0.56103,0 1.13397,0.99 1.27319,2.2 0.22239,1.932736 0.59329,2.2 3.05314,2.2 2.66667,0 2.8,-0.133333 2.8,-2.8 0,-2.636763 -0.17665,-2.823319 -3.0301,-3.2 l -3.03011,-0.4 6.03011,-5.979978 6.0301,-5.979978 6.030104,5.979978 6.030103,5.979978 -3.030103,0.4 c -2.853452,0.376681 -3.030104,0.563237 -3.030104,3.2 0,2.733334 0.07619,2.8 3.2,2.8 2.896209,0 3.224031,-0.208856 3.453138,-2.2 0.139226,-1.21 0.689625,-2.2 1.223111,-2.2 0.533485,0 3.289545,2.340376 6.124578,5.200835 l 5.154606,5.200834 -5.556261,5.599166 c -3.055943,3.079541 -5.813106,5.599166 -6.12703,5.599166 -0.313923,0 -0.683577,-1.17 -0.821456,-2.6 -0.237016,-2.45822 -0.425186,-2.6 -3.450686,-2.6 h -3.2 v 3.2 c 0,3.143486 0.05518,3.204516 3.124628,3.455722 l 3.124627,0.255722 -5.904605,5.944278 c -3.247533,3.269353 -6.102626,5.944278 -6.34465,5.944278 -0.242024,0 -3.09712,-2.674925 -6.34465,-5.944278 z m 9.839048,-0.347575 c 2.801662,-2.869163 2.899786,-3.123058 1.362357,-3.525105 -1.335305,-0.349189 -1.656755,-1.068658 -1.656755,-3.708146 0,-2.930353 -0.203531,-3.274896 -1.93457,-3.274896 -1.064013,0 -2.50401,-0.218516 -3.2,-0.485592 -1.04331,-0.400353 -1.26543,0.174498 -1.26543,3.274896 0,3.130625 -0.2775,3.833055 -1.65676,4.193738 -1.53742,0.402047 -1.4393,0.655942 1.36236,3.525105 1.66052,1.700519 3.232994,3.091853 3.4944,3.091853 0.261406,0 1.833885,-1.391334 3.494398,-3.091853 z M -73.364677,56.213222 c 3.14708,0 3.15464,-0.0077 3.15464,-3.200001 0,-3.19469 -0.005,-3.2 -3.16846,-3.2 -1.74265,0 -3.63265,-0.511712 -4.2,-1.13714 -0.87751,-0.967344 -1.47979,-0.703906 -4.0335,1.764268 l -3.00195,2.901408 2.94237,3.013264 c 2.84373,2.912242 2.97942,2.960376 4.04732,1.435732 0.78205,-1.116532 2.02682,-1.577531 4.25958,-1.577531 z m 28.246218,-5.711033 c -2.528653,-2.589577 -3.063409,-2.831421 -4.059097,-1.835733 -0.630722,0.630722 -2.561052,1.146766 -4.289624,1.146766 -3.133333,0 -3.142857,0.0097 -3.142857,3.2 0,3.109226 0.07757,3.200001 2.73457,3.200001 3.633488,0 5.26543,0.696718 5.26543,2.247949 0,0.860901 1.042934,0.25837 3.201955,-1.849859 l 3.201955,-3.126626 z m -17.731578,-5.488968 c 2.020522,0 2.24,-0.270451 2.24,-2.760247 0,-1.629238 0.494718,-3.037105 1.207368,-3.435925 0.988938,-0.553437 0.699476,-1.167946 -1.6,-3.396685 l -2.807368,-2.721009 -2.80737,2.721009 c -2.29947,2.228739 -2.58894,2.843248 -1.6,3.396685 0.80654,0.451362 1.20737,1.910749 1.20737,4.395925 0,2.893527 0.21333,3.506915 0.96,2.760247 0.528,-0.527999 1.968,-0.96 3.2,-0.96 z"
                 style="fill:#4a79b2;stroke-width:0.80000001" />
              <path
                 inkscape:connector-curvature="0"
                 id="path2192"
                 d="m -70.154687,71.868944 -5.90461,-5.944278 3.12463,-0.255722 c 3.06945,-0.251206 3.12463,-0.312236 3.12463,-3.455722 0,-3.12381 -0.0667,-3.2 -2.8,-3.2 -2.57422,0 -2.82021,0.209654 -3.05069,2.6 -0.13787,1.43 -0.50753,2.6 -0.82145,2.6 -0.31393,0 -3.04583,-2.494176 -6.07091,-5.542613 l -5.50014,-5.542613 5.0484,-5.257387 c 2.77662,-2.891564 5.50743,-5.257388 6.06846,-5.257388 0.56103,0 1.13397,0.99 1.27319,2.2 0.22239,1.932736 0.59329,2.2 3.05314,2.2 2.66667,0 2.8,-0.133333 2.8,-2.8 0,-2.636763 -0.17665,-2.823319 -3.0301,-3.2 l -3.03011,-0.4 6.03011,-5.979978 6.0301,-5.979978 6.030104,5.979978 6.030103,5.979978 -3.030103,0.4 c -2.853452,0.376681 -3.030104,0.563237 -3.030104,3.2 0,2.733334 0.07619,2.8 3.2,2.8 2.896209,0 3.224031,-0.208856 3.453138,-2.2 0.139226,-1.21 0.689625,-2.2 1.223111,-2.2 0.533485,0 3.289545,2.340376 6.124578,5.200835 l 5.154606,5.200834 -5.556261,5.599166 c -3.055943,3.079541 -5.813106,5.599166 -6.12703,5.599166 -0.313923,0 -0.683577,-1.17 -0.821456,-2.6 -0.237016,-2.45822 -0.425186,-2.6 -3.450686,-2.6 h -3.2 v 3.2 c 0,3.143486 0.05518,3.204516 3.124628,3.455722 l 3.124627,0.255722 -5.904605,5.944278 c -3.247533,3.269353 -6.102626,5.944278 -6.34465,5.944278 -0.242024,0 -3.09712,-2.674925 -6.34465,-5.944278 z m 9.839048,-0.347575 c 2.801662,-2.869163 2.899786,-3.123058 1.362357,-3.525105 -1.335305,-0.349189 -1.656755,-1.068658 -1.656755,-3.708146 0,-3.053458 -0.151462,-3.274896 -2.24,-3.274896 -1.232,0 -2.672,-0.432 -3.2,-0.96 -0.74667,-0.746667 -0.96,-0.01891 -0.96,3.274896 0,3.61045 -0.24429,4.298779 -1.65676,4.668146 -1.53742,0.402047 -1.4393,0.655942 1.36236,3.525105 1.66052,1.700519 3.232994,3.091853 3.4944,3.091853 0.261406,0 1.833885,-1.391334 3.494398,-3.091853 z M -73.364677,56.213222 c 3.14708,0 3.15464,-0.0077 3.15464,-3.200001 0,-3.183157 -0.0163,-3.2 -3.10204,-3.2 -1.82249,0 -3.52547,-0.510186 -4.12854,-1.236846 -0.90216,-1.087034 -1.39876,-0.873339 -4.09991,1.764267 l -3.07342,3.001115 2.94237,3.013263 c 2.84373,2.912243 2.97942,2.960376 4.04732,1.435732 0.78205,-1.116532 2.02682,-1.57753 4.25958,-1.57753 z m 28.246218,-5.711033 c -2.528653,-2.589577 -3.063409,-2.831421 -4.059097,-1.835733 -0.630722,0.630722 -2.561052,1.146766 -4.289624,1.146766 -3.133333,0 -3.142857,0.0097 -3.142857,3.2 0,3.198869 0.0011,3.200001 3.193221,3.200001 2.31615,0 3.464949,0.435106 4.182525,1.584127 0.950897,1.522629 1.106523,1.469666 4.008734,-1.364267 l 3.01943,-2.948396 z m -17.731578,-5.488968 c 2.020522,0 2.24,-0.270451 2.24,-2.760247 0,-1.629238 0.494718,-3.037105 1.207368,-3.435925 0.988938,-0.553437 0.699476,-1.167946 -1.6,-3.396685 l -2.807368,-2.721009 -2.80737,2.721009 c -2.29947,2.228739 -2.58894,2.843248 -1.6,3.396685 0.80654,0.451362 1.20737,1.910749 1.20737,4.395925 0,2.893527 0.21333,3.506915 0.96,2.760247 0.528,-0.527999 1.968,-0.96 3.2,-0.96 z"
                 style="fill:#4978b0;stroke-width:0.80000001" />
              <path
                 inkscape:connector-curvature="0"
                 id="path2190"
                 d="m -70.154687,71.868944 -5.90461,-5.944278 3.12463,-0.255722 c 3.06945,-0.251206 3.12463,-0.312236 3.12463,-3.455722 0,-3.12381 -0.0667,-3.2 -2.8,-3.2 -2.57422,0 -2.82021,0.209654 -3.05069,2.6 -0.13787,1.43 -0.50753,2.6 -0.82145,2.6 -0.31393,0 -3.04583,-2.494176 -6.07091,-5.542613 l -5.50014,-5.542613 5.0484,-5.257387 c 2.77662,-2.891564 5.50743,-5.257388 6.06846,-5.257388 0.56103,0 1.13397,0.99 1.27319,2.2 0.22239,1.932736 0.59329,2.2 3.05314,2.2 2.66667,0 2.8,-0.133333 2.8,-2.8 0,-2.636763 -0.17665,-2.823319 -3.0301,-3.2 l -3.03011,-0.4 6.03011,-5.979978 6.0301,-5.979978 6.030104,5.979978 6.030103,5.979978 -3.030103,0.4 c -2.853452,0.376681 -3.030104,0.563237 -3.030104,3.2 0,2.733334 0.07619,2.8 3.2,2.8 2.896209,0 3.224031,-0.208856 3.453138,-2.2 0.139226,-1.21 0.689625,-2.2 1.223111,-2.2 0.533485,0 3.289545,2.340376 6.124578,5.200835 l 5.154606,5.200834 -5.556261,5.599166 c -3.055943,3.079541 -5.813106,5.599166 -6.12703,5.599166 -0.313923,0 -0.683577,-1.17 -0.821456,-2.6 -0.237016,-2.45822 -0.425186,-2.6 -3.450686,-2.6 h -3.2 v 3.2 c 0,3.143486 0.05518,3.204516 3.124628,3.455722 l 3.124627,0.255722 -5.904605,5.944278 c -3.247533,3.269353 -6.102626,5.944278 -6.34465,5.944278 -0.242024,0 -3.09712,-2.674925 -6.34465,-5.944278 z m 9.839048,-0.347575 c 2.801662,-2.869163 2.899786,-3.123058 1.362357,-3.525105 -1.335305,-0.349189 -1.656755,-1.068658 -1.656755,-3.708146 0,-3.053458 -0.151462,-3.274896 -2.24,-3.274896 -1.232,0 -2.672,-0.432 -3.2,-0.96 -0.74667,-0.746667 -0.96,-0.01891 -0.96,3.274896 0,3.61045 -0.24429,4.298779 -1.65676,4.668146 -1.53742,0.402047 -1.4393,0.655942 1.36236,3.525105 1.66052,1.700519 3.232994,3.091853 3.4944,3.091853 0.261406,0 1.833885,-1.391334 3.494398,-3.091853 z M -73.364677,56.213222 c 3.14708,0 3.15464,-0.0077 3.15464,-3.200001 0,-3.183157 -0.0163,-3.2 -3.10204,-3.2 -1.82249,0 -3.52547,-0.510186 -4.12854,-1.236846 -0.90216,-1.087034 -1.39876,-0.873339 -4.09991,1.764267 l -3.07342,3.001115 2.94237,3.013263 c 2.84373,2.912243 2.97942,2.960376 4.04732,1.435732 0.78205,-1.116532 2.02682,-1.57753 4.25958,-1.57753 z m 28.246218,-5.711033 c -2.528653,-2.589577 -3.063409,-2.831421 -4.059097,-1.835733 -0.630722,0.630722 -2.561052,1.146766 -4.289624,1.146766 -3.133333,0 -3.142857,0.0097 -3.142857,3.2 0,3.198869 0.0011,3.200001 3.193221,3.200001 2.31615,0 3.464949,0.435106 4.182525,1.584127 0.950897,1.522629 1.106523,1.469666 4.008734,-1.364267 l 3.01943,-2.948396 z M -62.26263,45.013221 c 1.350811,0 1.652593,-0.504052 1.652593,-2.760247 0,-1.629238 0.494718,-3.037105 1.207368,-3.435925 0.988938,-0.553437 0.699476,-1.167946 -1.6,-3.396685 l -2.807368,-2.721009 -2.80737,2.721009 c -2.29947,2.228739 -2.58894,2.843248 -1.6,3.396685 0.79662,0.445811 1.20737,1.896457 1.20737,4.264072 0,3.299839 0.12443,3.521801 1.54741,2.760249 0.85107,-0.455481 2.291071,-0.828148 3.199997,-0.828149 z"
                 style="fill:#4877b0;stroke-width:0.80000001" />
              <path
                 inkscape:connector-curvature="0"
                 id="path2188"
                 d="m -70.154687,71.868944 -5.90461,-5.944278 3.12463,-0.255722 c 3.06945,-0.251206 3.12463,-0.312236 3.12463,-3.455722 0,-3.12381 -0.0667,-3.2 -2.8,-3.2 -2.57422,0 -2.82021,0.209654 -3.05069,2.6 -0.13787,1.43 -0.50753,2.6 -0.82145,2.6 -0.31393,0 -3.04583,-2.494176 -6.07091,-5.542613 l -5.50014,-5.542613 5.0484,-5.257387 c 2.77662,-2.891564 5.50743,-5.257388 6.06846,-5.257388 0.56103,0 1.13397,0.99 1.27319,2.2 0.22239,1.932736 0.59329,2.2 3.05314,2.2 2.66667,0 2.8,-0.133333 2.8,-2.8 0,-2.636763 -0.17665,-2.823319 -3.0301,-3.2 l -3.03011,-0.4 6.03011,-5.979978 6.0301,-5.979978 6.030104,5.979978 6.030103,5.979978 -3.030103,0.4 c -2.853452,0.376681 -3.030104,0.563237 -3.030104,3.2 0,2.733334 0.07619,2.8 3.2,2.8 2.896209,0 3.224031,-0.208856 3.453138,-2.2 0.139226,-1.21 0.689625,-2.2 1.223111,-2.2 0.533485,0 3.289545,2.340376 6.124578,5.200835 l 5.154606,5.200834 -5.556261,5.599166 c -3.055943,3.079541 -5.813106,5.599166 -6.12703,5.599166 -0.313923,0 -0.683577,-1.17 -0.821456,-2.6 -0.237016,-2.45822 -0.425186,-2.6 -3.450686,-2.6 h -3.2 v 3.2 c 0,3.143486 0.05518,3.204516 3.124628,3.455722 l 3.124627,0.255722 -5.904605,5.944278 c -3.247533,3.269353 -6.102626,5.944278 -6.34465,5.944278 -0.242024,0 -3.09712,-2.674925 -6.34465,-5.944278 z m 9.94465,-0.455721 c 2.269338,-2.324012 2.751776,-3.200001 1.762358,-3.200001 -1.081313,0 -1.362358,-0.742654 -1.362358,-3.6 0,-3.569192 -0.02356,-3.6 -2.752786,-3.6 -1.514033,0 -2.975274,-0.36 -3.247214,-0.8 -1.19147,-1.92784 -2,-0.472486 -2,3.600001 0,3.610829 -0.24435,4.399999 -1.36236,4.399999 -0.98942,0 -0.50698,0.875989 1.76236,3.200001 1.71859,1.76 3.338594,3.2 3.6,3.2 0.261406,0 1.881406,-1.44 3.6,-3.2 z m -13.56025,-14.4 h 3.56025 v -4.000001 -4 h -3.55279 c -1.95403,0 -3.79544,-0.392625 -4.09202,-0.872501 -0.33472,-0.541589 -1.71873,0.27925 -3.64917,2.164268 l -3.10993,3.036769 2.96803,3.039534 c 2.41473,2.472915 3.09361,2.815126 3.6417,1.835732 0.44238,-0.790484 1.89607,-1.203801 4.23393,-1.203801 z m 28.571784,-6.593006 c -1.645806,-1.68546 -3.116686,-2.691539 -3.268621,-2.235734 -0.151935,0.455807 -2.046247,0.828738 -4.209579,0.828738 h -3.933334 v 4 4.000001 h 3.625108 c 2.557761,0 3.767163,0.370191 4.107582,1.257307 0.38633,1.006761 1.099097,0.65519 3.576848,-1.764267 l 3.094372,-3.021576 z m -17.211534,-4.959274 c 2.509698,-0.04606 2.6,-0.163494 2.6,-3.381055 0,-1.833333 0.374878,-3.458293 0.833062,-3.611021 0.458185,-0.152728 -0.441815,-1.513348 -2,-3.0236 l -2.833062,-2.745913 -2.83306,2.745913 c -1.55819,1.510252 -2.45819,2.870872 -2,3.0236 0.45818,0.152728 0.83306,2.086204 0.83306,4.296612 0,3.537212 0.16781,3.942469 1.4,3.381056 0.77,-0.350828 2.57,-0.659344 4,-0.685592 z"
                 style="fill:#4876ae;stroke-width:0.80000001" />
              <path
                 inkscape:connector-curvature="0"
                 id="path2186"
                 d="m -70.154687,71.868944 -5.90461,-5.944278 3.12463,-0.255722 c 3.06945,-0.251206 3.12463,-0.312236 3.12463,-3.455722 0,-3.12381 -0.0667,-3.2 -2.8,-3.2 -2.57422,0 -2.82021,0.209654 -3.05069,2.6 -0.13787,1.43 -0.50753,2.6 -0.82145,2.6 -0.31393,0 -3.04583,-2.494176 -6.07091,-5.542613 l -5.50014,-5.542613 5.0484,-5.257387 c 2.77662,-2.891564 5.50743,-5.257388 6.06846,-5.257388 0.56103,0 1.13397,0.99 1.27319,2.2 0.22239,1.932736 0.59329,2.2 3.05314,2.2 2.66667,0 2.8,-0.133333 2.8,-2.8 0,-2.636763 -0.17665,-2.823319 -3.0301,-3.2 l -3.03011,-0.4 6.03011,-5.979978 6.0301,-5.979978 6.030104,5.979978 6.030103,5.979978 -3.030103,0.4 c -2.853452,0.376681 -3.030104,0.563237 -3.030104,3.2 0,2.733334 0.07619,2.8 3.2,2.8 2.896209,0 3.224031,-0.208856 3.453138,-2.2 0.139226,-1.21 0.689625,-2.2 1.223111,-2.2 0.533485,0 3.289545,2.340376 6.124578,5.200835 l 5.154606,5.200834 -5.556261,5.599166 c -3.055943,3.079541 -5.813106,5.599166 -6.12703,5.599166 -0.313923,0 -0.683577,-1.17 -0.821456,-2.6 -0.237016,-2.45822 -0.425186,-2.6 -3.450686,-2.6 h -3.2 v 3.2 c 0,3.143486 0.05518,3.204516 3.124628,3.455722 l 3.124627,0.255722 -5.904605,5.944278 c -3.247533,3.269353 -6.102626,5.944278 -6.34465,5.944278 -0.242024,0 -3.09712,-2.674925 -6.34465,-5.944278 z m 9.94465,-0.455721 c 2.269338,-2.324012 2.751776,-3.200001 1.762358,-3.200001 -1.081313,0 -1.362358,-0.742654 -1.362358,-3.6 0,-3.569192 -0.02356,-3.6 -2.752786,-3.6 -1.514033,0 -2.975274,-0.36 -3.247214,-0.8 -1.19147,-1.92784 -2,-0.472486 -2,3.600001 0,3.610829 -0.24435,4.399999 -1.36236,4.399999 -0.98942,0 -0.50698,0.875989 1.76236,3.200001 1.71859,1.76 3.338594,3.2 3.6,3.2 0.261406,0 1.881406,-1.44 3.6,-3.2 z m -13.56025,-14.4 h 3.56025 v -4.000001 -4 h -3.56025 c -2.33786,0 -3.79155,-0.413317 -4.23393,-1.203801 -0.54636,-0.976289 -1.26494,-0.598299 -3.80211,2 l -3.12843,3.203801 3.12843,3.203802 c 2.53717,2.598299 3.25575,2.976289 3.80211,2 0.44238,-0.790484 1.89607,-1.203801 4.23393,-1.203801 z m 28.548485,-7.388236 c -2.44759,-2.44759 -3.388235,-3.002832 -3.388235,-2 0,1.132549 -0.736723,1.388235 -4,1.388235 h -4 v 4 4.000001 h 3.625108 c 2.578122,0 3.766323,0.368001 4.114056,1.274179 0.391595,1.02048 1.14086,0.622267 3.763127,-2 l 3.274179,-3.274181 z m -17.188235,-4.108398 c 2.535135,0.01626 2.6,-0.06965 2.6,-3.443346 0,-2.750754 0.284573,-3.460021 1.388235,-3.460021 1.002832,0 0.447591,-0.940645 -2,-3.388235 l -3.388235,-3.388235 -3.38824,3.388235 c -2.44759,2.44759 -3.00283,3.388235 -2,3.388235 1.13643,0 1.38824,0.741075 1.38824,4.085591 0,3.602371 0.16558,4.00963 1.4,3.443345 0.77,-0.353235 2.57,-0.634741 4,-0.625569 z"
                 style="fill:#4775ae;stroke-width:0.80000001" />
              <path
                 inkscape:connector-curvature="0"
                 id="path2182"
                 d="m -70.154687,71.868944 -5.90461,-5.944278 3.12463,-0.255722 c 3.06945,-0.251206 3.12463,-0.312236 3.12463,-3.455722 0,-3.12381 -0.0667,-3.2 -2.8,-3.2 -2.57422,0 -2.82021,0.209654 -3.05069,2.6 -0.13787,1.43 -0.50827,2.6 -0.82311,2.6 -1.08423,0 -10.5262,-10.044863 -10.5262,-11.198327 0,-1.403134 8.75644,-10.401674 10.12182,-10.401674 0.53455,0 1.08582,0.99 1.22504,2.2 0.22239,1.932736 0.59329,2.2 3.05314,2.2 2.66667,0 2.8,-0.133333 2.8,-2.799999 0,-2.600213 -0.19413,-2.818529 -2.72069,-3.059688 l -2.72069,-0.259688 5.90127,-5.940917 5.901267,-5.940916 5.849525,5.800604 5.849525,5.800605 -3.030103,0.399999 c -2.853452,0.376681 -3.030104,0.563237 -3.030104,3.200001 0,2.733334 0.07619,2.799999 3.2,2.799999 2.896209,0 3.224031,-0.208855 3.453138,-2.2 0.139226,-1.21 0.712163,-2.2 1.273194,-2.2 0.56103,0 3.291838,2.365824 6.068459,5.257388 l 5.048403,5.257387 -5.500142,5.542613 c -3.025078,3.048437 -5.756986,5.542613 -6.07091,5.542613 -0.313923,0 -0.683577,-1.17 -0.821456,-2.6 -0.237016,-2.458219 -0.425186,-2.6 -3.450686,-2.6 h -3.2 v 3.2 c 0,3.143486 0.05518,3.204516 3.124628,3.455722 l 3.124627,0.255722 -5.904605,5.944278 c -3.247533,3.269353 -6.102626,5.944278 -6.34465,5.944278 -0.242024,0 -3.09712,-2.674925 -6.34465,-5.944278 z m 9.94465,-0.455721 c 2.269338,-2.324012 2.751776,-3.200001 1.762358,-3.200001 -1.081313,0 -1.362358,-0.742654 -1.362358,-3.6 0,-3.569192 -0.02356,-3.6 -2.752786,-3.6 -1.514033,0 -2.975274,-0.36 -3.247214,-0.8 -1.19147,-1.92784 -2,-0.472486 -2,3.600001 0,3.610829 -0.24435,4.399999 -1.36236,4.399999 -0.98942,0 -0.50698,0.875989 1.76236,3.200001 1.71859,1.76 3.338594,3.2 3.6,3.2 0.261406,0 1.881406,-1.44 3.6,-3.2 z m -13.56025,-14.4 h 3.56025 v -4.000001 -4 h -3.56025 c -2.33786,0 -3.79155,-0.413317 -4.23393,-1.203801 -0.54636,-0.976289 -1.26494,-0.598299 -3.80211,2 l -3.12843,3.203801 3.12843,3.203802 c 2.53717,2.598299 3.25575,2.976289 3.80211,2 0.44238,-0.790484 1.89607,-1.203801 4.23393,-1.203801 z m 28.548485,-7.388236 c -2.44759,-2.44759 -3.388235,-3.002832 -3.388235,-2 0,1.132549 -0.736723,1.388235 -4,1.388235 h -4 v 4 4.000001 h 3.625108 c 2.578122,0 3.766323,0.368001 4.114056,1.274179 0.391595,1.02048 1.14086,0.622267 3.763127,-2 l 3.274179,-3.274181 z m -16.594063,-4.284712 c 1.919465,0.481755 2.005828,0.347773 2.005828,-3.111811 0,-2.898083 0.275386,-3.615242 1.388235,-3.615242 1.002832,0 0.447591,-0.940645 -2,-3.388236 l -3.388235,-3.388235 -3.38824,3.388235 c -2.44759,2.44759 -3.00283,3.388236 -2,3.388236 1.15008,0 1.38824,0.758 1.38824,4.418443 v 4.418442 l 1.99417,-1.306632 c 1.24959,-0.818759 2.743115,-1.118659 4.000002,-0.8032 z"
                 style="fill:#4775ac;stroke-width:0.80000001" />
              <path
                 inkscape:connector-curvature="0"
                 id="path2180"
                 d="m -70.154687,71.868944 -5.90461,-5.944278 3.12463,-0.255722 c 3.06945,-0.251206 3.12463,-0.312236 3.12463,-3.455722 0,-3.12381 -0.0667,-3.2 -2.8,-3.2 -2.57422,0 -2.82021,0.209654 -3.05069,2.6 -0.13787,1.43 -0.50827,2.6 -0.82311,2.6 -1.08423,0 -10.5262,-10.044863 -10.5262,-11.198327 0,-1.403134 8.75644,-10.401674 10.12182,-10.401674 0.53455,0 1.08582,0.99 1.22504,2.2 0.22239,1.932736 0.59329,2.2 3.05314,2.2 2.66667,0 2.8,-0.133333 2.8,-2.799999 0,-2.600213 -0.19413,-2.818529 -2.72069,-3.059688 l -2.72069,-0.259688 5.90127,-5.940917 5.901267,-5.940916 5.849525,5.800604 5.849525,5.800605 -3.030103,0.399999 c -2.853452,0.376681 -3.030104,0.563237 -3.030104,3.200001 0,2.733334 0.07619,2.799999 3.2,2.799999 2.896209,0 3.224031,-0.208855 3.453138,-2.2 0.139226,-1.21 0.712163,-2.2 1.273194,-2.2 0.56103,0 3.291838,2.365824 6.068459,5.257388 l 5.048403,5.257387 -5.500142,5.542613 c -3.025078,3.048437 -5.756986,5.542613 -6.07091,5.542613 -0.313923,0 -0.683577,-1.17 -0.821456,-2.6 -0.237016,-2.458219 -0.425186,-2.6 -3.450686,-2.6 h -3.2 v 3.2 c 0,3.143486 0.05518,3.204516 3.124628,3.455722 l 3.124627,0.255722 -5.904605,5.944278 c -3.247533,3.269353 -6.102626,5.944278 -6.34465,5.944278 -0.242024,0 -3.09712,-2.674925 -6.34465,-5.944278 z m 9.94465,-0.455721 c 2.269338,-2.324012 2.751776,-3.200001 1.762358,-3.200001 -1.081313,0 -1.362358,-0.742654 -1.362358,-3.6 0,-3.569192 -0.02356,-3.6 -2.752786,-3.6 -1.514033,0 -2.975274,-0.36 -3.247214,-0.8 -1.19147,-1.92784 -2,-0.472486 -2,3.600001 0,3.610829 -0.24435,4.399999 -1.36236,4.399999 -0.98942,0 -0.50698,0.875989 1.76236,3.200001 1.71859,1.76 3.338594,3.2 3.6,3.2 0.261406,0 1.881406,-1.44 3.6,-3.2 z m -13.56025,-14.4 h 3.56025 v -4.000001 -4 h -3.56025 c -2.33786,0 -3.79155,-0.413317 -4.23393,-1.203801 -0.54636,-0.976289 -1.26494,-0.598299 -3.80211,2 l -3.12843,3.203801 3.12843,3.203802 c 2.53717,2.598299 3.25575,2.976289 3.80211,2 0.44238,-0.790484 1.89607,-1.203801 4.23393,-1.203801 z m 28.769322,-7.19071 c -2.546928,-2.608292 -3.268667,-2.989148 -3.814894,-2.013092 -0.442378,0.790483 -1.896069,1.2038 -4.23393,1.2038 h -3.560248 v 4 4.000001 h 3.625108 c 2.578122,0 3.766323,0.368001 4.114056,1.274179 0.391738,1.020852 1.137303,0.625824 3.750035,-1.986907 l 3.261087,-3.261088 z m -16.8149,-4.482239 c 1.919465,0.481755 2.005828,0.347773 2.005828,-3.111811 0,-2.898083 0.275386,-3.615242 1.388235,-3.615242 1.002832,0 0.447591,-0.940645 -2,-3.388235 l -3.388235,-3.388235 -3.38824,3.388235 c -2.44759,2.44759 -3.00283,3.388235 -2,3.388235 1.15008,0 1.38824,0.758 1.38824,4.418443 v 4.418442 l 1.99417,-1.306632 c 1.24959,-0.818758 2.743115,-1.118659 4.000002,-0.8032 z"
                 style="fill:#4675ac;stroke-width:0.80000001" />
              <path
                 inkscape:connector-curvature="0"
                 id="path2178"
                 d="m -70.154687,71.868944 -5.90461,-5.944278 3.12463,-0.255722 c 3.06945,-0.251206 3.12463,-0.312236 3.12463,-3.455722 0,-3.12381 -0.0667,-3.2 -2.8,-3.2 -2.57422,0 -2.82021,0.209654 -3.05069,2.6 -0.13787,1.43 -0.50827,2.6 -0.82311,2.6 -1.08423,0 -10.5262,-10.044863 -10.5262,-11.198327 0,-1.403134 8.75644,-10.401674 10.12182,-10.401674 0.53455,0 1.08582,0.99 1.22504,2.2 0.22239,1.932736 0.59329,2.2 3.05314,2.2 2.66667,0 2.8,-0.133333 2.8,-2.799999 0,-2.600213 -0.19413,-2.818529 -2.72069,-3.059688 l -2.72069,-0.259688 5.90127,-5.940917 5.901267,-5.940916 5.849525,5.800604 5.849525,5.800605 -3.030103,0.399999 c -2.853452,0.376681 -3.030104,0.563237 -3.030104,3.200001 0,2.733334 0.07619,2.799999 3.2,2.799999 2.896209,0 3.224031,-0.208855 3.453138,-2.2 0.139226,-1.21 0.712163,-2.2 1.273194,-2.2 0.56103,0 3.291838,2.365824 6.068459,5.257388 l 5.048403,5.257387 -5.500142,5.542613 c -3.025078,3.048437 -5.756986,5.542613 -6.07091,5.542613 -0.313923,0 -0.683577,-1.17 -0.821456,-2.6 -0.237016,-2.458219 -0.425186,-2.6 -3.450686,-2.6 h -3.2 v 3.2 c 0,3.143486 0.05518,3.204516 3.124628,3.455722 l 3.124627,0.255722 -5.904605,5.944278 c -3.247533,3.269353 -6.102626,5.944278 -6.34465,5.944278 -0.242024,0 -3.09712,-2.674925 -6.34465,-5.944278 z m 9.94465,-0.455721 c 2.269338,-2.324012 2.751776,-3.200001 1.762358,-3.200001 -1.081313,0 -1.362358,-0.742654 -1.362358,-3.6 0,-3.569192 -0.02356,-3.6 -2.752786,-3.6 -1.514033,0 -2.975274,-0.36 -3.247214,-0.8 -1.19147,-1.92784 -2,-0.472486 -2,3.600001 0,3.610829 -0.24435,4.399999 -1.36236,4.399999 -0.98942,0 -0.50698,0.875989 1.76236,3.200001 1.71859,1.76 3.338594,3.2 3.6,3.2 0.261406,0 1.881406,-1.44 3.6,-3.2 z m -13.56025,-14.4 h 3.56025 v -4.000001 -4 h -3.56025 c -2.33786,0 -3.79155,-0.413317 -4.23393,-1.203801 -0.54636,-0.976289 -1.26494,-0.598299 -3.80211,2 l -3.12843,3.203801 3.12843,3.203802 c 2.53717,2.598299 3.25575,2.976289 3.80211,2 0.44238,-0.790484 1.89607,-1.203801 4.23393,-1.203801 z m 28.769322,-7.19071 c -2.546928,-2.608292 -3.268667,-2.989148 -3.814894,-2.013092 -0.450822,0.805573 -1.917606,1.203637 -4.43393,1.203304 l -3.760248,-4.97e-4 0.27721,4.000497 0.277212,4.000498 h 3.547896 c 2.507494,0 3.69128,0.373647 4.036846,1.274179 0.391738,1.020851 1.137303,0.625824 3.750035,-1.986908 l 3.261087,-3.261088 z m -16.8149,-4.482239 c 1.919465,0.481755 2.005828,0.347773 2.005828,-3.111811 0,-2.898083 0.275386,-3.615242 1.388235,-3.615242 1.002832,0 0.447591,-0.940645 -2,-3.388235 l -3.388235,-3.388235 -3.38824,3.388235 c -2.44759,2.44759 -3.00283,3.388235 -2,3.388235 1.15008,0 1.38824,0.758 1.38824,4.418443 v 4.418442 l 1.99417,-1.306632 c 1.24959,-0.818758 2.743115,-1.118659 4.000002,-0.8032 z"
                 style="fill:#4571a9;stroke-width:0.80000001" />
              <path
                 inkscape:connector-curvature="0"
                 id="path2176"
                 d="m -70.154687,71.868944 -5.90461,-5.944278 3.12463,-0.255722 c 3.06945,-0.251206 3.12463,-0.312236 3.12463,-3.455722 0,-3.12381 -0.0667,-3.2 -2.8,-3.2 -2.57422,0 -2.82021,0.209654 -3.05069,2.6 -0.13787,1.43 -0.50827,2.6 -0.82311,2.6 -1.08423,0 -10.5262,-10.044863 -10.5262,-11.198327 0,-1.403134 8.75644,-10.401674 10.12182,-10.401674 0.53455,0 1.08582,0.99 1.22504,2.2 0.22239,1.932736 0.59329,2.2 3.05314,2.2 2.66667,0 2.8,-0.133333 2.8,-2.799999 0,-2.600213 -0.19413,-2.818529 -2.72069,-3.059688 l -2.72069,-0.259688 5.90127,-5.940917 5.901267,-5.940916 5.849525,5.800604 5.849525,5.800605 -3.030103,0.399999 c -2.853452,0.376681 -3.030104,0.563237 -3.030104,3.200001 0,2.733334 0.07619,2.799999 3.2,2.799999 2.896209,0 3.224031,-0.208855 3.453138,-2.2 0.139226,-1.21 0.712163,-2.2 1.273194,-2.2 0.56103,0 3.291838,2.365824 6.068459,5.257388 l 5.048403,5.257387 -5.500142,5.542613 c -3.025078,3.048437 -5.756986,5.542613 -6.07091,5.542613 -0.313923,0 -0.683577,-1.17 -0.821456,-2.6 -0.237016,-2.458219 -0.425186,-2.6 -3.450686,-2.6 h -3.2 v 3.2 c 0,3.143486 0.05518,3.204516 3.124628,3.455722 l 3.124627,0.255722 -5.904605,5.944278 c -3.247533,3.269353 -6.102626,5.944278 -6.34465,5.944278 -0.242024,0 -3.09712,-2.674925 -6.34465,-5.944278 z m 9.94465,-0.455721 c 2.269338,-2.324012 2.751776,-3.200001 1.762358,-3.200001 -1.093896,0 -1.362358,-0.756572 -1.362358,-3.839359 v -3.83936 l -2.70551,0.315854 c -1.488032,0.173719 -2.94928,-0.07857 -3.24721,-0.560641 -1.23736,-2.002081 -2.04728,-0.608149 -2.04728,3.523507 0,3.610829 -0.24435,4.4 -1.36236,4.4 -0.98942,0 -0.50698,0.875988 1.76236,3.2 1.71859,1.76 3.338594,3.2 3.6,3.2 0.261406,0 1.881406,-1.44 3.6,-3.2 z m -13.56025,-14.4 h 3.56025 v -4.000001 -4 h -3.56025 c -2.33786,0 -3.79155,-0.413317 -4.23393,-1.203801 -0.54636,-0.976289 -1.26494,-0.598299 -3.80211,2 l -3.12843,3.203801 3.12843,3.203802 c 2.53717,2.598299 3.25575,2.976289 3.80211,2 0.44238,-0.790484 1.89607,-1.203801 4.23393,-1.203801 z m 28.769322,-7.19071 c -2.546928,-2.608292 -3.268667,-2.989148 -3.814894,-2.013092 -0.45075,0.805442 -1.918011,1.2038 -4.43393,1.2038 h -3.760248 v 4 4.000001 h 3.825108 c 2.761075,0 3.961118,0.354439 4.314056,1.274179 0.391738,1.020852 1.137303,0.625824 3.750035,-1.986907 l 3.261087,-3.261088 z m -16.8149,-4.482239 c 1.919465,0.481755 2.005828,0.347773 2.005828,-3.111811 0,-2.898083 0.275386,-3.615242 1.388235,-3.615242 1.002832,0 0.447591,-0.940645 -2,-3.388235 l -3.388235,-3.388235 -3.38824,3.388235 c -2.44759,2.44759 -3.00283,3.388235 -2,3.388235 1.15008,0 1.38824,0.758 1.38824,4.418443 v 4.418442 l 1.99417,-1.306632 c 1.24959,-0.818758 2.743115,-1.118659 4.000002,-0.8032 z"
                 style="fill:#436fa4;stroke-width:0.80000001" />
              <path
                 inkscape:connector-curvature="0"
                 id="path2174"
                 d="m -70.154687,71.868944 -5.90461,-5.944278 3.12463,-0.255722 c 3.06945,-0.251206 3.12463,-0.312236 3.12463,-3.455722 0,-3.12381 -0.0667,-3.2 -2.8,-3.2 -2.57422,0 -2.82021,0.209654 -3.05069,2.6 -0.13787,1.43 -0.50827,2.6 -0.82311,2.6 -1.08423,0 -10.5262,-10.044863 -10.5262,-11.198327 0,-1.403134 8.75644,-10.401674 10.12182,-10.401674 0.53455,0 1.08582,0.99 1.22504,2.2 0.22239,1.932736 0.59329,2.2 3.05314,2.2 2.66667,0 2.8,-0.133333 2.8,-2.799999 0,-2.600213 -0.19413,-2.818529 -2.72069,-3.059688 l -2.72069,-0.259688 5.90127,-5.940917 5.901267,-5.940916 5.849525,5.800604 5.849525,5.800605 -3.030103,0.399999 c -2.853452,0.376681 -3.030104,0.563237 -3.030104,3.200001 0,2.733334 0.07619,2.799999 3.2,2.799999 2.896209,0 3.224031,-0.208855 3.453138,-2.2 0.139226,-1.21 0.712163,-2.2 1.273194,-2.2 0.56103,0 3.291838,2.365824 6.068459,5.257388 l 5.048403,5.257387 -5.500142,5.542613 c -3.025078,3.048437 -5.756986,5.542613 -6.07091,5.542613 -0.313923,0 -0.683577,-1.17 -0.821456,-2.6 -0.237016,-2.458219 -0.425186,-2.6 -3.450686,-2.6 h -3.2 v 3.2 c 0,3.143486 0.05518,3.204516 3.124628,3.455722 l 3.124627,0.255722 -5.904605,5.944278 c -3.247533,3.269353 -6.102626,5.944278 -6.34465,5.944278 -0.242024,0 -3.09712,-2.674925 -6.34465,-5.944278 z m 9.94465,-0.455721 c 2.269338,-2.324012 2.751776,-3.200001 1.762358,-3.200001 -1.093896,0 -1.362358,-0.756572 -1.362358,-3.839359 v -3.83936 l -2.70551,0.315854 c -1.488032,0.173719 -2.94928,-0.07857 -3.24721,-0.560641 -1.23736,-2.002081 -2.04728,-0.608149 -2.04728,3.523507 0,3.610829 -0.24435,4.4 -1.36236,4.4 -0.98942,0 -0.50698,0.875988 1.76236,3.2 1.71859,1.76 3.338594,3.2 3.6,3.2 0.261406,0 1.881406,-1.44 3.6,-3.2 z m -13.31181,-14.4 h 3.31181 v -4.000001 -4 h -3.56025 c -2.33786,0 -3.79155,-0.413317 -4.23393,-1.203801 -0.54636,-0.976289 -1.26494,-0.598299 -3.80211,2 l -3.12843,3.203801 3.15238,3.228328 c 2.70096,2.766033 3.281,3.052432 4.05055,2 0.55718,-0.761984 2.15553,-1.228327 4.20998,-1.228327 z m 28.520882,-7.19071 c -2.546928,-2.608292 -3.268667,-2.989148 -3.814894,-2.013092 -0.45075,0.805442 -1.918011,1.2038 -4.43393,1.2038 h -3.760248 v 4 4.000001 h 3.825108 c 2.761075,0 3.961118,0.354439 4.314056,1.274179 0.391738,1.020852 1.137303,0.625824 3.750035,-1.986907 l 3.261087,-3.261088 z m -16.41481,-4.411111 c 1.447662,0.459469 1.605738,0.149932 1.605738,-3.144269 0,-2.934785 0.273218,-3.653911 1.388235,-3.653911 1.002832,0 0.447591,-0.940645 -2,-3.388236 l -3.388235,-3.388235 -3.38824,3.388235 c -2.44759,2.44759 -3.00283,3.388236 -2,3.388236 1.147,0 1.38824,0.753943 1.38824,4.338684 v 4.338684 l 2.39426,-1.194415 c 1.316846,-0.656928 3.116846,-0.965077 4.000002,-0.684773 z"
                 style="fill:#436ea3;stroke-width:0.80000001" />
              <path
                 inkscape:connector-curvature="0"
                 id="path2172"
                 d="m -70.154687,71.868944 -5.90461,-5.944278 3.12463,-0.255722 c 3.06945,-0.251206 3.12463,-0.312236 3.12463,-3.455722 0,-3.12381 -0.0667,-3.2 -2.8,-3.2 -2.57422,0 -2.82021,0.209654 -3.05069,2.6 -0.13787,1.43 -0.50827,2.6 -0.82311,2.6 -1.08423,0 -10.5262,-10.044863 -10.5262,-11.198327 0,-1.403134 8.75644,-10.401674 10.12182,-10.401674 0.53455,0 1.08582,0.99 1.22504,2.2 0.22239,1.932736 0.59329,2.2 3.05314,2.2 2.66667,0 2.8,-0.133333 2.8,-2.799999 0,-2.600213 -0.19413,-2.818529 -2.72069,-3.059688 l -2.72069,-0.259688 5.90127,-5.940917 5.901267,-5.940916 5.849525,5.800604 5.849525,5.800605 -3.030103,0.399999 c -2.853452,0.376681 -3.030104,0.563237 -3.030104,3.200001 0,2.733334 0.07619,2.799999 3.2,2.799999 2.896209,0 3.224031,-0.208855 3.453138,-2.2 0.139226,-1.21 0.712163,-2.2 1.273194,-2.2 0.56103,0 3.291838,2.365824 6.068459,5.257388 l 5.048403,5.257387 -5.500142,5.542613 c -3.025078,3.048437 -5.756986,5.542613 -6.07091,5.542613 -0.313923,0 -0.683577,-1.17 -0.821456,-2.6 -0.237016,-2.458219 -0.425186,-2.6 -3.450686,-2.6 h -3.2 v 3.2 c 0,3.143486 0.05518,3.204516 3.124628,3.455722 l 3.124627,0.255722 -5.904605,5.944278 c -3.247533,3.269353 -6.102626,5.944278 -6.34465,5.944278 -0.242024,0 -3.09712,-2.674925 -6.34465,-5.944278 z m 9.94465,-0.455721 c 2.269338,-2.324012 2.751776,-3.200001 1.762358,-3.200001 -1.094979,0 -1.362358,-0.757856 -1.362358,-3.861446 0,-3.846575 -0.0094,-3.86007 -2.431558,-3.504569 -1.60532,0.235611 -2.964512,-0.125438 -4.000002,-1.062545 -1.54178,-1.395293 -1.56844,-1.335724 -1.56844,3.504569 0,4.104354 -0.22678,4.923991 -1.36236,4.923991 -0.98942,0 -0.50698,0.875989 1.76236,3.200001 1.71859,1.76 3.338594,3.2 3.6,3.2 0.261406,0 1.881406,-1.44 3.6,-3.2 z m -13.31181,-14.4 h 3.31181 v -4.000001 -4 h -3.56025 c -2.33786,0 -3.79155,-0.413317 -4.23393,-1.203801 -0.54636,-0.976289 -1.26494,-0.598299 -3.80211,2 l -3.12843,3.203801 3.15238,3.228328 c 2.70096,2.766033 3.281,3.052432 4.05055,2 0.55718,-0.761984 2.15553,-1.228327 4.20998,-1.228327 z m 28.520882,-7.19071 c -2.546928,-2.608292 -3.268667,-2.989148 -3.814894,-2.013092 -0.45075,0.805442 -1.918011,1.2038 -4.43393,1.2038 h -3.760248 v 4 4.000001 h 3.825108 c 2.761075,0 3.961118,0.354439 4.314056,1.274179 0.391738,1.020852 1.137303,0.625824 3.750035,-1.986907 l 3.261087,-3.261088 z m -16.41481,-4.411111 c 1.447662,0.459469 1.605738,0.149932 1.605738,-3.144269 0,-2.934785 0.273218,-3.653911 1.388235,-3.653911 1.002832,0 0.447591,-0.940645 -2,-3.388236 l -3.388235,-3.388235 -3.38824,3.388235 c -2.44759,2.44759 -3.00283,3.388236 -2,3.388236 1.147,0 1.38824,0.753943 1.38824,4.338684 v 4.338684 l 2.39426,-1.194415 c 1.316846,-0.656928 3.116846,-0.965077 4.000002,-0.684773 z"
                 style="fill:#426ea2;stroke-width:0.80000001" />
              <path
                 inkscape:connector-curvature="0"
                 id="path2170"
                 d="m -70.154687,71.868944 -5.90461,-5.944278 3.12463,-0.255722 c 3.06945,-0.251206 3.12463,-0.312236 3.12463,-3.455722 0,-3.12381 -0.0667,-3.2 -2.8,-3.2 -2.57422,0 -2.82021,0.209654 -3.05069,2.6 -0.13787,1.43 -0.50827,2.6 -0.82311,2.6 -1.08423,0 -10.5262,-10.044863 -10.5262,-11.198327 0,-1.403134 8.75644,-10.401674 10.12182,-10.401674 0.53455,0 1.08582,0.99 1.22504,2.2 0.22239,1.932736 0.59329,2.2 3.05314,2.2 2.66667,0 2.8,-0.133333 2.8,-2.799999 0,-2.600213 -0.19413,-2.818529 -2.72069,-3.059688 l -2.72069,-0.259688 5.90127,-5.940917 5.901267,-5.940916 5.849525,5.800604 5.849525,5.800605 -3.030103,0.399999 c -2.853452,0.376681 -3.030104,0.563237 -3.030104,3.200001 0,2.733334 0.07619,2.799999 3.2,2.799999 2.896209,0 3.224031,-0.208855 3.453138,-2.2 0.139226,-1.21 0.712163,-2.2 1.273194,-2.2 0.56103,0 3.291838,2.365824 6.068459,5.257388 l 5.048403,5.257387 -5.500142,5.542613 c -3.025078,3.048437 -5.756986,5.542613 -6.07091,5.542613 -0.313923,0 -0.683577,-1.17 -0.821456,-2.6 -0.237016,-2.458219 -0.425186,-2.6 -3.450686,-2.6 h -3.2 v 3.2 c 0,3.143486 0.05518,3.204516 3.124628,3.455722 l 3.124627,0.255722 -5.904605,5.944278 c -3.247533,3.269353 -6.102626,5.944278 -6.34465,5.944278 -0.242024,0 -3.09712,-2.674925 -6.34465,-5.944278 z m 9.71092,-0.218081 c 3.268784,-3.19188 3.721309,-4.23764 1.83373,-4.23764 -0.883236,0 -1.2,-0.921008 -1.2,-3.489063 0,-3.289598 -0.114253,-3.467222 -1.998518,-3.107022 -1.112768,0.212719 -2.885582,-0.199186 -4.000002,-0.92938 l -2.00148,-1.311421 v 4.418442 c 0,3.394172 -0.27818,4.418443 -1.2,4.418443 -0.66,0 -1.2,0.254821 -1.2,0.566269 0,0.645656 5.71267,6.633731 6.328628,6.633731 0.222151,0 1.76909,-1.333061 3.437642,-2.962359 z m -16.96627,-13.437641 c 0,-0.888888 0.93333,-1.2 3.6,-1.2 h 3.6 v -4.000001 -4 h -3.6 c -2.66667,0 -3.6,-0.31111 -3.6,-1.2 0,-1.906685 -1.05228,-1.428376 -4.4,2 l -3.12472,3.2 3.12472,3.200001 c 3.34772,3.428376 4.4,3.906686 4.4,2 z m 32.4,-2 3.124717,-3.200001 -3.124717,-3.2 c -3.34772,-3.428376 -4.4,-3.906685 -4.4,-2 0,0.898509 -0.956216,1.2 -3.805944,1.2 h -3.805943 l 0.0059,3.997524 0.0059,3.997523 3.8,0.0025 c 2.843391,0.0018 3.800047,0.304576 3.800047,1.202474 0,1.906686 1.05228,1.428376 4.4,-2 z m -16.405738,-10.80182 c 1.427995,0.453227 1.605738,0.149456 1.605738,-2.74427 0,-2.359031 0.33002,-3.253911 1.2,-3.253911 1.906686,0 1.428377,-1.05228 -2,-4.4 l -3.2,-3.124716 -3.2,3.124716 c -3.42838,3.347721 -3.90669,4.4 -2,4.4 0.90418,0 1.2,0.970965 1.2,3.938684 v 3.938685 l 2.39426,-1.194415 c 1.316846,-0.656928 3.116846,-0.965077 4.000002,-0.684773 z"
                 style="fill:#426ca0;stroke-width:0.80000001" />
              <path
                 inkscape:connector-curvature="0"
                 id="path2168"
                 d="m -70.154687,71.868944 -5.90461,-5.944278 3.12463,-0.255722 c 3.06945,-0.251206 3.12463,-0.312236 3.12463,-3.455722 0,-3.12381 -0.0667,-3.2 -2.8,-3.2 -2.57422,0 -2.82021,0.209654 -3.05069,2.6 -0.13787,1.43 -0.50827,2.6 -0.82311,2.6 -1.08423,0 -10.5262,-10.044863 -10.5262,-11.198327 0,-1.403134 8.75644,-10.401674 10.12182,-10.401674 0.53455,0 1.08582,0.99 1.22504,2.2 0.22239,1.932736 0.59329,2.2 3.05314,2.2 2.66667,0 2.8,-0.133333 2.8,-2.799999 0,-2.600213 -0.19413,-2.818529 -2.72069,-3.059688 l -2.72069,-0.259688 5.90127,-5.940917 5.901267,-5.940916 5.849525,5.800604 5.849525,5.800605 -3.030103,0.399999 c -2.853452,0.376681 -3.030104,0.563237 -3.030104,3.200001 0,2.733334 0.07619,2.799999 3.2,2.799999 2.896209,0 3.224031,-0.208855 3.453138,-2.2 0.139226,-1.21 0.712163,-2.2 1.273194,-2.2 0.56103,0 3.291838,2.365824 6.068459,5.257388 l 5.048403,5.257387 -5.500142,5.542613 c -3.025078,3.048437 -5.756986,5.542613 -6.07091,5.542613 -0.313923,0 -0.683577,-1.17 -0.821456,-2.6 -0.237016,-2.458219 -0.425186,-2.6 -3.450686,-2.6 h -3.2 v 3.2 c 0,3.143486 0.05518,3.204516 3.124628,3.455722 l 3.124627,0.255722 -5.904605,5.944278 c -3.247533,3.269353 -6.102626,5.944278 -6.34465,5.944278 -0.242024,0 -3.09712,-2.674925 -6.34465,-5.944278 z m 9.71092,-0.218081 c 3.268784,-3.19188 3.721309,-4.23764 1.83373,-4.23764 -0.883236,0 -1.2,-0.921008 -1.2,-3.489063 0,-3.289598 -0.114253,-3.467222 -1.998518,-3.107022 -1.112768,0.212719 -2.885582,-0.199186 -4.000002,-0.92938 l -2.00148,-1.311421 v 4.418442 c 0,3.394172 -0.27818,4.418443 -1.2,4.418443 -0.66,0 -1.2,0.254821 -1.2,0.566269 0,0.645656 5.71267,6.633731 6.328628,6.633731 0.222151,0 1.76909,-1.333061 3.437642,-2.962359 z m -16.96627,-13.437641 c 0,-0.888888 0.93333,-1.2 3.6,-1.2 h 3.6 v -4.000001 -4 h -3.6 c -2.66667,0 -3.6,-0.31111 -3.6,-1.2 0,-1.906685 -1.05228,-1.428376 -4.4,2 l -3.12472,3.2 3.12472,3.200001 c 3.34772,3.428376 4.4,3.906686 4.4,2 z m 32.4,-2 3.124717,-3.200001 -3.124717,-3.2 c -3.34772,-3.428376 -4.4,-3.906685 -4.4,-2 0,0.898509 -0.956216,1.2 -3.805944,1.2 h -3.805943 l 0.0059,3.997524 0.0059,3.997523 3.8,0.0025 c 2.843391,0.0018 3.800047,0.304576 3.800047,1.202474 0,1.906686 1.05228,1.428376 4.4,-2 z m -16.63088,-10.686069 c 1.685311,0.422986 1.83088,0.198202 1.83088,-2.827205 0,-2.388202 0.328056,-3.286727 1.2,-3.286727 1.906686,0 1.428377,-1.05228 -2,-4.4 l -3.2,-3.124716 -3.2,3.124716 c -3.42838,3.347721 -3.90669,4.4 -2,4.4 0.90475,0 1.2,0.972507 1.2,3.952559 v 3.952557 l 2.16912,-1.125352 c 1.19302,-0.618944 2.993015,-0.918569 4,-0.665832 z"
                 style="fill:#496d98;stroke-width:0.80000001" />
              <path
                 inkscape:connector-curvature="0"
                 id="path2166"
                 d="m -70.210037,71.813222 -5.95996,-6 h 3.42598 3.42598 l -0.246,-3.4 c -0.23879,-3.300299 -0.33397,-3.407281 -3.246,-3.648292 -2.95142,-0.244272 -3,-0.202168 -3,2.6 0,1.566561 -0.2804,2.848292 -0.62311,2.848292 -0.91661,0 -10.57689,-9.904817 -10.57689,-10.844636 0,-0.905473 9.72732,-10.755364 10.62152,-10.755364 0.31817,0 0.57848,1.101731 0.57848,2.448292 0,2.339946 0.13276,2.437305 3,2.2 2.83709,-0.234808 3.01348,-0.411206 3.24829,-3.248292 0.24698,-2.984133 0.23221,-3 -2.7931,-3 h -3.0414 l 5.79311,-5.793103 5.7931,-5.793104 5.793103,5.793104 5.793104,5.793103 h -3.041396 c -3.025309,0 -3.040082,0.01586 -2.793103,3 0.241011,2.912028 0.347994,3.007214 3.648292,3.245999 3.312291,0.239652 3.4,0.182899 3.4,-2.2 0,-1.345301 0.279655,-2.445999 0.621456,-2.445999 0.3418,0 3.04211,2.439348 6.000689,5.420771 l 5.379233,5.420772 -5.420765,5.379228 c -2.981422,2.958576 -5.681732,5.379229 -6.00069,5.379229 -0.318957,0 -0.579923,-1.2807 -0.579923,-2.845998 v -2.845999 l -3.4,0.245998 c -3.383471,0.244803 -3.401196,0.262527 -3.645998,3.646 l -0.245999,3.4 h 3.425977 3.425976 l -5.959956,6 c -3.277976,3.3 -6.157976,6 -6.4,6 -0.242024,0 -3.12202,-2.7 -6.4,-6.000001 z m 9.76627,-0.162359 c 3.268784,-3.19188 3.721309,-4.23764 1.83373,-4.23764 -0.883236,0 -1.2,-0.921008 -1.2,-3.489063 0,-3.289598 -0.114253,-3.467222 -1.998518,-3.107022 -1.112768,0.212719 -2.885582,-0.199186 -4.000002,-0.92938 l -2.00148,-1.311421 v 4.418442 c 0,3.394172 -0.27818,4.418443 -1.2,4.418443 -0.66,0 -1.2,0.254821 -1.2,0.566269 0,0.645656 5.71267,6.633731 6.328628,6.633731 0.222151,0 1.76909,-1.333061 3.437642,-2.962359 z m -16.96627,-13.437641 c 0,-0.888888 0.93333,-1.2 3.6,-1.2 h 3.6 v -4.000001 -4 h -3.6 c -2.66667,0 -3.6,-0.31111 -3.6,-1.2 0,-1.906685 -1.05228,-1.428376 -4.4,2 l -3.12472,3.2 3.12472,3.200001 c 3.34772,3.428376 4.4,3.906686 4.4,2 z m 32.4,-2 3.124717,-3.200001 -3.124717,-3.2 c -3.34772,-3.428376 -4.4,-3.906685 -4.4,-2 0,0.898509 -0.956216,1.2 -3.805944,1.2 h -3.805943 l 0.0059,3.997524 0.0059,3.997523 3.8,0.0025 c 2.843391,0.0018 3.800047,0.304576 3.800047,1.202474 0,1.906686 1.05228,1.428376 4.4,-2 z m -16.63088,-10.686069 c 1.685311,0.422986 1.83088,0.198202 1.83088,-2.827205 0,-2.388202 0.328056,-3.286727 1.2,-3.286727 1.906686,0 1.428377,-1.05228 -2,-4.4 l -3.2,-3.124716 -3.2,3.124716 c -3.42838,3.347721 -3.90669,4.4 -2,4.4 0.90475,0 1.2,0.972507 1.2,3.952559 v 3.952557 l 2.16912,-1.125352 c 1.19302,-0.618944 2.993015,-0.918569 4,-0.665832 z"
                 style="fill:#406b9e;stroke-width:0.80000001" />
              <path
                 inkscape:connector-curvature="0"
                 id="path2164"
                 d="m -70.210037,71.813222 -5.95996,-6 h 3.42598 3.42598 l -0.246,-3.4 c -0.23879,-3.300299 -0.33397,-3.407281 -3.246,-3.648292 -2.95142,-0.244272 -3,-0.202168 -3,2.6 0,1.566561 -0.2804,2.848292 -0.62311,2.848292 -0.91661,0 -10.57689,-9.904817 -10.57689,-10.844636 0,-0.905473 9.72732,-10.755364 10.62152,-10.755364 0.31817,0 0.57848,1.101731 0.57848,2.448292 0,2.339946 0.13276,2.437305 3,2.2 2.83709,-0.234808 3.01348,-0.411206 3.24829,-3.248292 0.24698,-2.984133 0.23221,-3 -2.7931,-3 h -3.0414 l 5.79311,-5.793103 5.7931,-5.793104 5.793103,5.793104 5.793104,5.793103 h -3.041396 c -3.025309,0 -3.040082,0.01586 -2.793103,3 0.241011,2.912028 0.347994,3.007214 3.648292,3.245999 3.312291,0.239652 3.4,0.182899 3.4,-2.2 0,-1.345301 0.279655,-2.445999 0.621456,-2.445999 0.3418,0 3.04211,2.439348 6.000689,5.420771 l 5.379233,5.420772 -5.420765,5.379228 c -2.981422,2.958576 -5.681732,5.379229 -6.00069,5.379229 -0.318957,0 -0.579923,-1.2807 -0.579923,-2.845998 v -2.845999 l -3.4,0.245998 c -3.383471,0.244803 -3.401196,0.262527 -3.645998,3.646 l -0.245999,3.4 h 3.425977 3.425976 l -5.959956,6 c -3.277976,3.3 -6.157976,6 -6.4,6 -0.242024,0 -3.12202,-2.7 -6.4,-6.000001 z m 9.76627,-0.162359 c 3.268784,-3.19188 3.721309,-4.23764 1.83373,-4.23764 -0.889638,0 -1.2,-0.935028 -1.2,-3.615242 0,-3.459584 -0.08636,-3.593567 -2.005828,-3.111812 -1.256887,0.315459 -2.750412,0.01556 -4.000002,-0.803199 l -1.99417,-1.306633 v 4.418442 c 0,3.394173 -0.27818,4.418444 -1.2,4.418444 -0.66,0 -1.2,0.254821 -1.2,0.566269 0,0.645656 5.71267,6.633731 6.328628,6.633731 0.222151,0 1.76909,-1.333061 3.437642,-2.96236 z m -16.96627,-13.437641 c 0,-0.888888 0.93333,-1.2 3.6,-1.2 h 3.6 v -4.000001 -4 h -3.6 c -2.66667,0 -3.6,-0.31111 -3.6,-1.2 0,-1.906685 -1.05228,-1.428376 -4.4,2 l -3.12472,3.2 3.12472,3.200001 c 3.34772,3.428376 4.4,3.906686 4.4,2 z m 32.4,-2 3.124717,-3.200001 -3.124717,-3.2 c -3.34772,-3.428376 -4.4,-3.906685 -4.4,-2 0,0.898246 -0.955555,1.2 -3.8,1.2 h -3.8 v 4 4.000001 h 3.8 c 2.844445,0 3.8,0.301754 3.8,1.2 0,1.906686 1.05228,1.428376 4.4,-2 z m -16.63088,-10.686069 c 1.685311,0.422986 1.83088,0.198202 1.83088,-2.827205 0,-2.388202 0.328056,-3.286727 1.2,-3.286727 1.906686,0 1.428377,-1.05228 -2,-4.4 l -3.2,-3.124716 -3.2,3.124716 c -3.42838,3.347721 -3.90669,4.4 -2,4.4 0.90475,0 1.2,0.972507 1.2,3.952559 v 3.952557 l 2.16912,-1.125352 c 1.19302,-0.618944 2.993015,-0.918569 4,-0.665832 z"
                 style="fill:#406a9c;stroke-width:0.80000001" />
              <path
                 inkscape:connector-curvature="0"
                 id="path2162"
                 d="m -70.210037,71.813222 -5.95996,-6 h 3.42598 3.42598 l -0.246,-3.4 c -0.23879,-3.300299 -0.33397,-3.407281 -3.246,-3.648292 -2.95142,-0.244272 -3,-0.202168 -3,2.6 0,1.566561 -0.2804,2.848292 -0.62311,2.848292 -0.91661,0 -10.57689,-9.904817 -10.57689,-10.844636 0,-0.905473 9.72732,-10.755364 10.62152,-10.755364 0.31817,0 0.57848,1.101731 0.57848,2.448292 0,2.339946 0.13276,2.437305 3,2.2 2.83709,-0.234808 3.01348,-0.411206 3.24829,-3.248292 0.24698,-2.984133 0.23221,-3 -2.7931,-3 h -3.0414 l 5.79311,-5.793103 5.7931,-5.793104 5.793103,5.793104 5.793104,5.793103 h -3.041396 c -3.025309,0 -3.040082,0.01586 -2.793103,3 0.241011,2.912028 0.347994,3.007214 3.648292,3.245999 3.312291,0.239652 3.4,0.182899 3.4,-2.2 0,-1.345301 0.279655,-2.445999 0.621456,-2.445999 0.3418,0 3.04211,2.439348 6.000689,5.420771 l 5.379233,5.420772 -5.420765,5.379228 c -2.981422,2.958576 -5.681732,5.379229 -6.00069,5.379229 -0.318957,0 -0.579923,-1.2807 -0.579923,-2.845998 v -2.845999 l -3.4,0.245998 c -3.383471,0.244803 -3.401196,0.262527 -3.645998,3.646 l -0.245999,3.4 h 3.425977 3.425976 l -5.959956,6 c -3.277976,3.3 -6.157976,6 -6.4,6 -0.242024,0 -3.12202,-2.7 -6.4,-6.000001 z m 10.4,-0.8 c 3.12075,-3.179812 3.326942,-3.599999 1.766566,-3.599999 -1.561478,0 -1.766566,-0.419709 -1.766566,-3.615242 0,-3.459584 -0.08636,-3.593567 -2.005828,-3.111812 -1.256887,0.315459 -2.750412,0.01556 -4.000002,-0.803199 l -1.99417,-1.306633 v 4.418442 c 0,4.02398 -0.15771,4.418444 -1.76657,4.418444 -1.56037,0 -1.35418,0.420187 1.76657,3.599999 1.94322,1.980001 3.743223,3.6 4,3.6 0.256777,0 2.056777,-1.62 4,-3.6 z m -13.94436,-14 h 3.54436 v -4.000001 -4 h -3.6 c -2.66667,0 -3.6,-0.31111 -3.6,-1.2 0,-1.906924 -1.05236,-1.428292 -4.4021,2.00215 l -3.12681,3.202149 3.56445,3.642454 c 3.12451,3.192872 3.59601,3.439464 3.8201,1.997851 0.21351,-1.373534 0.83984,-1.644603 3.8,-1.644603 z m 28.757756,-7.186281 c -3.360587,-3.441554 -4.413396,-3.921924 -4.413396,-2.01372 0,0.898246 -0.955555,1.2 -3.8,1.2 h -3.8 v 4 4.000001 h 3.8 c 3.400784,0 3.8,0.187996 3.8,1.789473 0,1.572066 0.458728,1.330747 3.775754,-1.986281 l 3.775755,-3.775753 z m -16.644276,-4.299788 c 1.685311,0.422986 1.83088,0.198202 1.83088,-2.827205 0,-2.388202 0.328056,-3.286727 1.2,-3.286727 1.906686,0 1.428377,-1.05228 -2,-4.4 l -3.2,-3.124716 -3.2,3.124716 c -3.42838,3.347721 -3.90669,4.4 -2,4.4 0.90475,0 1.2,0.972507 1.2,3.952559 v 3.952557 l 2.16912,-1.125352 c 1.19302,-0.618944 2.993015,-0.918569 4,-0.665832 z"
                 style="fill:#456994;stroke-width:0.80000001" />
              <path
                 inkscape:connector-curvature="0"
                 id="path2160"
                 d="m -70.210037,71.813222 -5.95996,-6 h 3.42598 3.42598 l -0.246,-3.4 c -0.23795,-3.288772 -0.34247,-3.408024 -3.19501,-3.645252 -2.88835,-0.240208 -2.95417,-0.182615 -3.2,2.8 l -0.25099,3.045252 -5.4,-5.126806 c -2.97,-2.819744 -5.4,-5.530143 -5.4,-6.023111 0,-0.970998 9.67098,-10.850084 10.62152,-10.850084 0.31817,0 0.57848,1.101731 0.57848,2.448292 0,2.339946 0.13276,2.437305 3,2.2 2.83709,-0.234808 3.01348,-0.411206 3.24829,-3.248292 0.24698,-2.984133 0.23221,-3 -2.7931,-3 h -3.0414 l 5.79311,-5.793103 5.7931,-5.793104 5.793103,5.793104 5.793104,5.793103 h -3.041396 c -3.025309,0 -3.040082,0.01586 -2.793103,3 0.241011,2.912028 0.347994,3.007214 3.648292,3.245999 3.312291,0.239652 3.4,0.182899 3.4,-2.2 0,-1.3453 0.2804,-2.445999 0.62311,-2.445999 0.916615,0 10.57689,9.904817 10.57689,10.844636 0,0.905473 -9.727318,10.755365 -10.621524,10.755365 -0.318162,0 -0.578476,-1.2807 -0.578476,-2.845999 v -2.845998 l -3.4,0.245998 c -3.383471,0.244803 -3.401196,0.262527 -3.645998,3.645999 l -0.245999,3.4 h 3.425977 3.425976 l -5.959956,6 c -3.277976,3.3 -6.157976,6 -6.4,6 -0.242024,0 -3.12202,-2.7 -6.4,-6 z m 10.4,-0.8 c 3.12075,-3.179812 3.326942,-3.599999 1.766566,-3.599999 -1.561478,0 -1.766566,-0.419709 -1.766566,-3.615242 0,-3.459584 -0.08636,-3.593567 -2.005828,-3.111812 -1.256887,0.315459 -2.750412,0.01556 -4.000002,-0.803199 l -1.99417,-1.306633 v 4.418442 c 0,4.02398 -0.15771,4.418444 -1.76657,4.418444 -1.56037,0 -1.35418,0.420187 1.76657,3.599999 1.94322,1.980001 3.743223,3.6 4,3.6 0.256777,0 2.056777,-1.62 4,-3.6 z m -13.94436,-14 h 3.54436 v -4.000001 -4 h -3.6 c -2.66667,0 -3.6,-0.31111 -3.6,-1.2 0,-1.906924 -1.05236,-1.428292 -4.4021,2.00215 l -3.12681,3.202149 3.56445,3.642454 c 3.12451,3.192872 3.59601,3.439464 3.8201,1.997851 0.21351,-1.373534 0.83984,-1.644603 3.8,-1.644603 z m 28.757756,-7.186281 c -3.360587,-3.441554 -4.413396,-3.921924 -4.413396,-2.01372 0,0.898246 -0.955555,1.2 -3.8,1.2 h -3.8 v 4 4.000001 h 3.8 c 3.400784,0 3.8,0.187996 3.8,1.789473 0,1.572066 0.458728,1.330747 3.775754,-1.986281 l 3.775755,-3.775753 z m -16.644276,-4.299788 c 1.685311,0.422986 1.83088,0.198202 1.83088,-2.827205 0,-2.388202 0.328056,-3.286727 1.2,-3.286727 1.906686,0 1.428377,-1.05228 -2,-4.4 l -3.2,-3.124716 -3.2,3.124716 c -3.42838,3.347721 -3.90669,4.4 -2,4.4 0.90475,0 1.2,0.972507 1.2,3.952559 v 3.952557 l 2.16912,-1.125352 c 1.19302,-0.618944 2.993015,-0.918569 4,-0.665832 z"
                 style="fill:#3f6799;stroke-width:0.80000001" />
              <path
                 inkscape:connector-curvature="0"
                 id="path2158"
                 d="m -70.210037,71.813222 -5.95996,-6 h 3.42598 3.42598 l -0.246,-3.4 c -0.23795,-3.288772 -0.34247,-3.408024 -3.19501,-3.645252 -2.88835,-0.240208 -2.95417,-0.182615 -3.2,2.8 l -0.25099,3.045252 -5.4,-5.126806 c -2.97,-2.819744 -5.4,-5.530143 -5.4,-6.023111 0,-0.970998 9.67098,-10.850084 10.62152,-10.850084 0.31817,0 0.57848,1.101731 0.57848,2.448292 0,2.339946 0.13276,2.437305 3,2.2 2.83709,-0.234808 3.01348,-0.411206 3.24829,-3.248292 0.24698,-2.984133 0.23221,-3 -2.7931,-3 h -3.0414 l 5.79311,-5.793103 5.7931,-5.793104 5.793103,5.793104 5.793104,5.793103 h -3.041396 c -3.025309,0 -3.040082,0.01586 -2.793103,3 0.241011,2.912028 0.347994,3.007214 3.648292,3.245999 3.312291,0.239652 3.4,0.182899 3.4,-2.2 0,-1.3453 0.2804,-2.445999 0.62311,-2.445999 0.916615,0 10.57689,9.904817 10.57689,10.844636 0,0.905473 -9.727318,10.755365 -10.621524,10.755365 -0.318162,0 -0.578476,-1.2807 -0.578476,-2.845999 v -2.845998 l -3.4,0.245998 c -3.383471,0.244803 -3.401196,0.262527 -3.645998,3.645999 l -0.245999,3.4 h 3.425977 3.425976 l -5.959956,6 c -3.277976,3.3 -6.157976,6 -6.4,6 -0.242024,0 -3.12202,-2.7 -6.4,-6 z m 10.4,-0.8 c 3.12075,-3.179812 3.326942,-3.599999 1.766566,-3.599999 -1.561478,0 -1.766566,-0.419709 -1.766566,-3.615242 0,-3.459584 -0.08636,-3.593567 -2.005828,-3.111812 -1.256887,0.315459 -2.750412,0.01556 -4.000002,-0.803199 l -1.99417,-1.306633 v 4.418442 c 0,4.02398 -0.15771,4.418444 -1.76657,4.418444 -1.56037,0 -1.35418,0.420187 1.76657,3.599999 1.94322,1.980001 3.743223,3.6 4,3.6 0.256777,0 2.056777,-1.62 4,-3.6 z m -13.94436,-14 h 3.54436 v -4.000001 -4 h -3.6 c -2.66667,0 -3.6,-0.31111 -3.6,-1.2 0,-1.906924 -1.05236,-1.428292 -4.4021,2.00215 l -3.12681,3.202149 3.56445,3.642454 c 3.12451,3.192872 3.59601,3.439464 3.8201,1.997851 0.21351,-1.373534 0.83984,-1.644603 3.8,-1.644603 z m 28.757756,-7.186281 c -3.360587,-3.441554 -4.413396,-3.921924 -4.413396,-2.01372 0,0.900796 -0.962048,1.2 -3.858434,1.2 h -3.858435 l 0.05843,3.999443 0.05843,3.999442 3.8,5.58e-4 c 3.400618,5e-4 3.8,0.188633 3.8,1.790031 0,1.572066 0.458728,1.330747 3.775755,-1.986281 l 3.775754,-3.775753 -3.138113,-3.213719 z m -16.53597,-4.277573 c 1.55742,0.407275 1.722574,0.134715 1.722574,-2.842841 0,-2.39405 0.327667,-3.293305 1.2,-3.293305 1.906686,0 1.428377,-1.05228 -2,-4.4 l -3.2,-3.124716 -3.2,3.124716 c -3.42838,3.34772 -3.90669,4.4 -2,4.4 0.90748,0 1.2,0.980061 1.2,4.020544 v 4.020544 l 2.27743,-1.177702 c 1.25258,-0.647736 3.05258,-0.974994 3.999996,-0.72724 z"
                 style="fill:#3d6697;stroke-width:0.80000001" />
              <path
                 inkscape:connector-curvature="0"
                 id="path2156"
                 d="m -70.210037,71.813222 -5.95996,-6 h 3.42598 3.42598 l -0.246,-3.4 c -0.23795,-3.288772 -0.34247,-3.408024 -3.19501,-3.645252 -2.88835,-0.240208 -2.95417,-0.182615 -3.2,2.8 l -0.25099,3.045252 -5.4,-5.126806 c -2.97,-2.819744 -5.4,-5.530143 -5.4,-6.023111 0,-0.970998 9.67098,-10.850084 10.62152,-10.850084 0.31817,0 0.57848,1.101731 0.57848,2.448292 0,2.339946 0.13276,2.437305 3,2.2 2.83709,-0.234808 3.01348,-0.411206 3.24829,-3.248292 0.24698,-2.984133 0.23221,-3 -2.7931,-3 h -3.0414 l 5.79311,-5.793103 5.7931,-5.793104 5.793103,5.793104 5.793104,5.793103 h -3.041396 c -3.025309,0 -3.040082,0.01586 -2.793103,3 0.241011,2.912028 0.347994,3.007214 3.648292,3.245999 3.312291,0.239652 3.4,0.182899 3.4,-2.2 0,-1.3453 0.2804,-2.445999 0.62311,-2.445999 0.916615,0 10.57689,9.904817 10.57689,10.844636 0,0.905473 -9.727318,10.755365 -10.621524,10.755365 -0.318162,0 -0.578476,-1.2807 -0.578476,-2.845999 v -2.845998 l -3.4,0.245998 c -3.383471,0.244803 -3.401196,0.262527 -3.645998,3.645999 l -0.245999,3.4 h 3.425977 3.425976 l -5.959956,6 c -3.277976,3.3 -6.157976,6 -6.4,6 -0.242024,0 -3.12202,-2.7 -6.4,-6 z m 10.4,-0.8 c 3.12075,-3.179812 3.326942,-3.599999 1.766566,-3.599999 -1.561478,0 -1.766566,-0.419709 -1.766566,-3.615242 0,-3.459584 -0.08636,-3.593567 -2.005828,-3.111812 -1.256887,0.315459 -2.750412,0.01556 -4.000002,-0.803199 l -1.99417,-1.306633 v 4.418442 c 0,4.02398 -0.15771,4.418444 -1.76657,4.418444 -1.56037,0 -1.35418,0.420187 1.76657,3.599999 1.94322,1.980001 3.743223,3.6 4,3.6 0.256777,0 2.056777,-1.62 4,-3.6 z m -13.94436,-14 h 3.54436 v -4.000001 -4 h -3.6 c -2.66667,0 -3.6,-0.31111 -3.6,-1.2 0,-1.906924 -1.05236,-1.428292 -4.4021,2.00215 l -3.12681,3.202149 3.56445,3.642454 c 3.12451,3.192872 3.59601,3.439464 3.8201,1.997851 0.21351,-1.373534 0.83984,-1.644603 3.8,-1.644603 z m 28.757756,-7.186281 c -3.360587,-3.441554 -4.413396,-3.921924 -4.413396,-2.01372 0,0.900267 -0.960684,1.2 -3.846154,1.2 h -3.846154 v 4 4.000001 h 3.846154 c 3.448568,0 3.846154,0.184982 3.846154,1.789473 0,1.572066 0.458728,1.330747 3.775754,-1.986281 l 3.775755,-3.775753 z m -16.53597,-4.277573 c 1.55742,0.407275 1.722574,0.134715 1.722574,-2.842841 0,-2.39405 0.327667,-3.293305 1.2,-3.293305 1.906686,0 1.428377,-1.05228 -2,-4.4 l -3.2,-3.124716 -3.2,3.124716 c -3.42838,3.34772 -3.90669,4.4 -2,4.4 0.90748,0 1.2,0.980061 1.2,4.020544 v 4.020544 l 2.27743,-1.177702 c 1.25258,-0.647736 3.05258,-0.974994 3.999996,-0.72724 z"
                 style="fill:#3d6596;stroke-width:0.80000001" />
              <path
                 inkscape:connector-curvature="0"
                 id="path2154"
                 d="m -70.210037,71.813222 -5.95996,-6 h 3.42598 3.42598 l -0.246,-3.4 c -0.23795,-3.288772 -0.34247,-3.408024 -3.19501,-3.645252 -2.88835,-0.240208 -2.95417,-0.182615 -3.2,2.8 l -0.25099,3.045252 -5.4,-5.126806 c -2.97,-2.819744 -5.4,-5.530143 -5.4,-6.023111 0,-0.970998 9.67098,-10.850084 10.62152,-10.850084 0.31817,0 0.57848,1.101731 0.57848,2.448292 0,2.339946 0.13276,2.437305 3,2.2 2.83709,-0.234808 3.01348,-0.411206 3.24829,-3.248292 0.24698,-2.984133 0.23221,-3 -2.7931,-3 h -3.0414 l 5.79311,-5.793103 5.7931,-5.793104 5.793103,5.793104 5.793104,5.793103 h -3.041396 c -3.025309,0 -3.040082,0.01586 -2.793103,3 0.241011,2.912028 0.347994,3.007214 3.648292,3.245999 3.312291,0.239652 3.4,0.182899 3.4,-2.2 0,-1.3453 0.2804,-2.445999 0.62311,-2.445999 0.916615,0 10.57689,9.904817 10.57689,10.844636 0,0.905473 -9.727318,10.755365 -10.621524,10.755365 -0.318162,0 -0.578476,-1.2807 -0.578476,-2.845999 v -2.845998 l -3.4,0.245998 c -3.383471,0.244803 -3.401196,0.262527 -3.645998,3.645999 l -0.245999,3.4 h 3.425977 3.425976 l -5.959956,6 c -3.277976,3.3 -6.157976,6 -6.4,6 -0.242024,0 -3.12202,-2.7 -6.4,-6 z m 10.4,-0.8 c 3.12075,-3.179812 3.326942,-3.599999 1.766566,-3.599999 -1.561478,0 -1.766566,-0.419709 -1.766566,-3.615242 0,-3.459584 -0.08636,-3.593567 -2.005828,-3.111812 -1.256887,0.315459 -2.750412,0.01556 -4.000002,-0.803199 l -1.99417,-1.306633 v 4.418442 c 0,4.02398 -0.15771,4.418444 -1.76657,4.418444 -1.56037,0 -1.35418,0.420187 1.76657,3.599999 1.94322,1.980001 3.743223,3.6 4,3.6 0.256777,0 2.056777,-1.62 4,-3.6 z m -13.74983,-14.158215 3.74983,-0.241785 v -3.600001 -3.6 l -3.8,-0.243832 c -3.29785,-0.211612 -3.8,-0.47451 -3.8,-1.989474 0,-1.507289 -0.51584,-1.229799 -3.77791,2.032272 l -3.77792,3.777912 3.57792,3.656164 c 3.08272,3.15014 3.61253,3.43433 3.82808,2.053346 0.20249,-1.297372 0.96476,-1.648895 4,-1.844602 z m 27.939304,-7.631259 c -3.327142,-3.327142 -3.789474,-3.571151 -3.789474,-2 0,1.604492 -0.397586,1.789473 -3.846154,1.789473 h -3.846154 v 4 4.000001 h 3.846154 c 3.448568,0 3.846154,0.184982 3.846154,1.789473 0,1.571151 0.462332,1.327142 3.789474,-2 l 3.789473,-3.789474 z M -62.26263,45.813221 c 2.328025,0 2.452593,-0.162528 2.452593,-3.2 0,-2.779608 0.235088,-3.2 1.789474,-3.2 1.57115,0 1.327141,-0.462332 -2,-3.789473 l -3.789474,-3.789474 -3.78947,3.789474 c -3.32715,3.327141 -3.57115,3.789473 -2,3.789473 1.6157,0 1.78947,0.391163 1.78947,4.028147 0,3.734609 0.11276,3.967799 1.54741,3.200001 0.85107,-0.455481 2.651071,-0.828148 3.999997,-0.828148 z"
                 style="fill:#416590;stroke-width:0.80000001" />
              <path
                 inkscape:connector-curvature="0"
                 id="path2152"
                 d="m -69.409437,71.813828 -5.96056,-6.000605 h 3.02598 3.02598 l -0.246,-3.4 c -0.23795,-3.288772 -0.34247,-3.408024 -3.19501,-3.645252 -2.88835,-0.240208 -2.95417,-0.182615 -3.2,2.8 l -0.25099,3.045252 -5.4,-5.126806 c -2.97,-2.819744 -5.4,-5.530143 -5.4,-6.023111 0,-0.970998 9.67098,-10.850084 10.62152,-10.850084 0.31817,0 0.57848,1.101731 0.57848,2.448292 0,2.339946 0.13276,2.437305 3,2.2 2.83709,-0.234808 3.01348,-0.411206 3.24829,-3.248292 0.24698,-2.984133 0.23221,-3 -2.7931,-3 h -3.0414 l 5.79311,-5.793103 5.7931,-5.793104 5.793103,5.793104 5.793104,5.793103 h -3.041396 c -3.025309,0 -3.040082,0.01586 -2.793103,3 0.241011,2.912028 0.347994,3.007214 3.648292,3.245999 3.312291,0.239652 3.4,0.182899 3.4,-2.2 0,-1.345301 0.2804,-2.445999 0.62311,-2.445999 0.917756,0 10.57689,9.905411 10.57689,10.846567 0,1.143648 -9.048554,9.953434 -10.223198,9.953434 -0.556084,0 -0.976802,-1.053515 -0.976802,-2.445999 0,-2.3829 -0.08771,-2.439653 -3.4,-2.200001 -3.375006,0.244191 -3.401791,0.27064 -3.643646,3.597867 l -0.243647,3.35187 3.272463,0.248131 3.272463,0.248131 -5.848238,5.800606 -5.848238,5.800605 z m 9.5994,-0.800606 c 3.12075,-3.179812 3.326942,-3.599999 1.766566,-3.599999 -1.561478,0 -1.766566,-0.419709 -1.766566,-3.615242 0,-3.459584 -0.08636,-3.593567 -2.005828,-3.111812 -1.256887,0.315459 -2.750412,0.01556 -4.000002,-0.803199 l -1.99417,-1.306633 v 4.418442 c 0,4.02398 -0.15771,4.418444 -1.76657,4.418444 -1.56037,0 -1.35418,0.420187 1.76657,3.599999 1.94322,1.980001 3.743223,3.6 4,3.6 0.256777,0 2.056777,-1.62 4,-3.6 z m -13.74983,-14.158215 3.74983,-0.241785 v -3.600001 -3.6 l -3.8,-0.243832 c -3.29785,-0.211612 -3.8,-0.47451 -3.8,-1.989474 0,-1.507289 -0.51584,-1.229799 -3.77791,2.032272 l -3.77792,3.777912 3.57792,3.656164 c 3.08272,3.15014 3.61253,3.43433 3.82808,2.053346 0.20249,-1.297372 0.96476,-1.648895 4,-1.844602 z m 27.939304,-7.631259 c -3.327142,-3.327142 -3.789474,-3.571151 -3.789474,-2 0,1.604492 -0.397586,1.789473 -3.846154,1.789473 h -3.846154 v 4 4.000001 h 3.846154 c 3.448568,0 3.846154,0.184982 3.846154,1.789473 0,1.571151 0.462332,1.327142 3.789474,-2 l 3.789473,-3.789474 z M -62.26263,45.813221 c 2.328025,0 2.452593,-0.162528 2.452593,-3.2 0,-2.779608 0.235088,-3.2 1.789474,-3.2 1.57115,0 1.327141,-0.462332 -2,-3.789473 l -3.789474,-3.789474 -3.78947,3.789474 c -3.32715,3.327141 -3.57115,3.789473 -2,3.789473 1.6157,0 1.78947,0.391163 1.78947,4.028147 0,3.734609 0.11276,3.967799 1.54741,3.200001 0.85107,-0.455481 2.651071,-0.828148 3.999997,-0.828148 z"
                 style="fill:#406591;stroke-width:0.80000001" />
              <path
                 inkscape:connector-curvature="0"
                 id="path2150"
                 d="m -69.409437,71.813828 -5.96056,-6.000605 h 2.97998 2.97998 v -3.6 -3.6 h -3.15171 c -3.0645,0 -3.15858,0.08301 -3.4,3 l -0.24829,3 -5.4,-5.126806 c -2.97,-2.819744 -5.4,-5.530143 -5.4,-6.023111 0,-0.970998 9.67098,-10.850084 10.62152,-10.850084 0.31817,0 0.57848,1.079999 0.57848,2.399999 0,2.266667 0.17778,2.4 3.2,2.4 h 3.2 v -3.2 c 0,-3.163133 -0.0345,-3.2 -2.9931,-3.2 h -2.99311 l 5.79311,-5.793103 5.7931,-5.793104 5.793103,5.793104 5.793104,5.793103 h -2.993104 c -2.958621,0 -2.993103,0.03687 -2.993103,3.2 v 3.2 h 3.6 c 3.466666,0 3.6,-0.08889 3.6,-2.4 0,-1.32 0.2804,-2.399999 0.62311,-2.399999 0.917756,0 10.57689,9.905411 10.57689,10.846567 0,1.143648 -9.048554,9.953434 -10.223198,9.953434 -0.552002,0 -0.976802,-1.043732 -0.976802,-2.4 0,-2.311112 -0.133334,-2.4 -3.6,-2.4 h -3.6 v 3.554001 3.554002 l 3.228816,0.245998 3.228817,0.245998 -5.848238,5.800606 -5.848238,5.800605 z m 9.5994,-0.800606 c 3.12075,-3.179812 3.326942,-3.599999 1.766566,-3.599999 -1.561478,0 -1.766566,-0.419709 -1.766566,-3.615242 0,-3.459584 -0.08636,-3.593567 -2.005828,-3.111812 -1.256887,0.315459 -2.750412,0.01556 -4.000002,-0.803199 l -1.99417,-1.306633 v 4.418442 c 0,4.02398 -0.15771,4.418444 -1.76657,4.418444 -1.56037,0 -1.35418,0.420187 1.76657,3.599999 1.94322,1.980001 3.743223,3.6 4,3.6 0.256777,0 2.056777,-1.62 4,-3.6 z m -13.74983,-14.158215 3.74983,-0.241785 v -3.600001 -3.6 l -3.8,-0.243832 c -3.29785,-0.211612 -3.8,-0.47451 -3.8,-1.989474 0,-1.507289 -0.51584,-1.229799 -3.77791,2.032272 l -3.77792,3.777912 3.57792,3.656164 c 3.08272,3.15014 3.61253,3.43433 3.82808,2.053346 0.20249,-1.297372 0.96476,-1.648895 4,-1.844602 z m 27.939304,-7.631259 c -3.327142,-3.327142 -3.789474,-3.571151 -3.789474,-2 0,1.604492 -0.397586,1.789473 -3.846154,1.789473 h -3.846154 v 4 4.000001 h 3.846154 c 3.448568,0 3.846154,0.184982 3.846154,1.789473 0,1.571151 0.462332,1.327142 3.789474,-2 l 3.789473,-3.789474 z M -62.26263,45.813221 c 2.328025,0 2.452593,-0.162528 2.452593,-3.2 0,-2.779608 0.235088,-3.2 1.789474,-3.2 1.57115,0 1.327141,-0.462332 -2,-3.789473 l -3.789474,-3.789474 -3.78947,3.789474 c -3.32715,3.327141 -3.57115,3.789473 -2,3.789473 1.6157,0 1.78947,0.391163 1.78947,4.028147 0,3.734609 0.11276,3.967799 1.54741,3.200001 0.85107,-0.455481 2.651071,-0.828148 3.999997,-0.828148 z"
                 style="fill:#3c6393;stroke-width:0.80000001" />
              <path
                 inkscape:connector-curvature="0"
                 id="path2120"
                 d="m -66.181887,57.065815 c -1.23726,-2.311833 -0.99938,-6.967074 0.42899,-8.395449 1.805942,-1.80594 4.914914,-1.57788 5.994713,0.439743 1.197595,2.237728 1.158967,6.844164 -0.06981,8.324748 -1.429239,1.722127 -5.356823,1.494008 -6.353893,-0.369042 z"
                 style="fill:#375c88;stroke-width:0.80000001" />
              <path
                 inkscape:connector-curvature="0"
                 id="path2118"
                 d="m -66.181887,57.065815 c -1.23726,-2.311833 -0.99938,-6.967074 0.42899,-8.395449 1.805942,-1.80594 4.914914,-1.57788 5.994713,0.439743 1.197595,2.237728 1.158967,6.844164 -0.06981,8.324748 -1.429239,1.722127 -5.356823,1.494008 -6.353893,-0.369042 z"
                 style="fill:#375b89;stroke-width:0.80000001" />
              <path
                 inkscape:connector-curvature="0"
                 id="path2116"
                 d="m -66.181887,57.065815 c -1.23726,-2.311833 -0.99938,-6.967074 0.42899,-8.395449 1.805942,-1.80594 4.914914,-1.57788 5.994713,0.439743 1.197595,2.237728 1.158967,6.844164 -0.06981,8.324748 -1.429239,1.722127 -5.356823,1.494008 -6.353893,-0.369042 z"
                 style="fill:#3d5985;stroke-width:0.80000001" />
              <path
                 inkscape:connector-curvature="0"
                 id="path2114"
                 d="m -66.181887,57.065815 c -1.32423,-2.474334 -0.99008,-6.858072 0.63484,-8.328603 3.06719,-2.775767 6.53701,-0.660147 6.53701,3.985745 0,4.066054 -1.238797,5.890265 -4,5.890265 -1.49839,0 -2.6424,-0.558112 -3.17185,-1.547407 z"
                 style="fill:#445680;stroke-width:0.80000001" />
              <path
                 inkscape:connector-curvature="0"
                 id="path2112"
                 d="m -65.752897,57.356079 c -2.66419,-2.664198 -0.66491,-9.942857 2.73108,-9.942857 3.445551,0 5.315415,5.669321 3.183633,9.652593 -1.002038,1.872325 -4.176846,2.028129 -5.914713,0.290264 z"
                 style="fill:#4a537c;stroke-width:0.80000001" />
              <path
                 inkscape:connector-curvature="0"
                 id="path2110"
                 d="m -65.752897,57.356079 c -2.63262,-2.632622 -0.67381,-9.942857 2.664233,-9.942857 3.359626,0 5.312591,5.799504 3.25048,9.652593 -1.002038,1.872325 -4.176846,2.028129 -5.914713,0.290264 z"
                 style="fill:#505078;stroke-width:0.80000001" />
              <path
                 inkscape:connector-curvature="0"
                 id="path2108"
                 d="m -65.686047,57.15023 c -2.61093,-2.885047 -0.78315,-9.737008 2.597383,-9.737008 3.359626,0 5.312591,5.799504 3.25048,9.652593 -1.045687,1.953885 -4.115907,1.998204 -5.847863,0.08441 z"
                 style="fill:#5d4b6f;stroke-width:0.80000001" />
              <path
                 inkscape:connector-curvature="0"
                 id="path2106"
                 d="m -65.764677,56.835217 c -2.40279,-3.43047 -0.6511,-9.421996 2.75464,-9.421996 2.04387,0 4,2.993301 4,6.120863 0,4.669387 -4.318123,6.779744 -6.75464,3.301133 z"
                 style="fill:#763f5e;stroke-width:0.80000001" />
              <path
                 inkscape:connector-curvature="0"
                 id="path2104"
                 d="m -65.764677,56.835217 c -0.68495,-0.977903 -1.24536,-2.777904 -1.24536,-4 0,-2.37304 2.44875,-5.421996 4.354637,-5.421996 1.729323,0 3.645363,3.217188 3.645363,6.120863 0,4.669387 -4.318123,6.779744 -6.75464,3.301133 z"
                 style="fill:#6f4262;stroke-width:0.80000001" />
              <path
                 inkscape:connector-curvature="0"
                 id="path2102"
                 d="m -65.764677,56.835217 c -1.71614,-2.450136 -1.55936,-5.907991 0.35464,-7.821996 2.077012,-2.077011 3.612297,-2.023994 5.154637,0.178005 1.687261,2.408904 1.578042,6.472946 -0.21763,8.098005 -2.005067,1.814563 -3.811213,1.659597 -5.291647,-0.454014 z"
                 style="fill:#823955;stroke-width:0.80000001" />
              <path
                 inkscape:connector-curvature="0"
                 id="path2100"
                 d="m -65.764677,56.835217 c -0.68495,-0.977903 -1.24536,-2.777904 -1.24536,-4 0,-2.16776 2.40077,-5.421996 4,-5.421996 1.762076,0 4,3.287517 4,5.87601 0,4.703908 -4.345675,6.985259 -6.75464,3.545986 z"
                 style="fill:#8f334d;stroke-width:0.80000001" />
              <path
                 inkscape:connector-curvature="0"
                 id="path2098"
                 d="m -65.764677,56.835217 c -1.71634,-2.450418 -1.55874,-5.583917 0.3858,-7.671147 2.012642,-2.160313 2.736479,-2.183208 4.76884,-0.150849 2.888341,2.888341 1.210426,9.600001 -2.4,9.600001 -0.830101,0 -2.06969,-0.800103 -2.75464,-1.778005 z"
                 style="fill:#953048;stroke-width:0.80000001" />
              <path
                 inkscape:connector-curvature="0"
                 id="path2096"
                 d="m -65.764677,56.835217 c -1.48019,-2.113276 -1.5797,-4.091988 -0.3256,-6.474587 1.73023,-3.287157 3.183243,-3.644405 5.48024,-1.347409 2.888341,2.888341 1.210426,9.600001 -2.4,9.600001 -0.830101,0 -2.06969,-0.800103 -2.75464,-1.778005 z"
                 style="fill:#a7283b;stroke-width:0.80000001" />
              <path
                 inkscape:connector-curvature="0"
                 id="path2094"
                 d="m -65.247767,57.608747 c -2.72311,-3.281154 -1.08808,-10.111289 2.43773,-10.183275 1.414873,-0.02889 3.8,3.36662 3.8,5.409745 0,4.349245 -4.030207,7.43343 -6.23773,4.77353 z"
                 style="fill:#ad2537;stroke-width:0.80000001" />
              <path
                 inkscape:connector-curvature="0"
                 id="path2092"
                 d="m -65.214167,57.613222 c -2.49726,-3.121394 -1.59117,-8.848509 1.529004,-9.664454 2.142613,-0.560306 4.675126,2.08668 4.675126,4.886449 0,4.33117 -4.060056,7.457952 -6.20413,4.778005 z"
                 style="fill:#b32233;stroke-width:0.80000001" />
              <path
                 inkscape:connector-curvature="0"
                 id="path2090"
                 d="m -64.747517,57.784129 c -3.06669,-1.789454 -2.48384,-7.739872 0.93748,-9.570907 3.571781,-1.911559 6.2991,4.703725 3.554637,8.621995 -1.352418,1.930847 -2.422088,2.156803 -4.492117,0.948912 z"
                 style="fill:#c01c2a;stroke-width:0.80000001" />
              <path
                 inkscape:connector-curvature="0"
                 id="path2088"
                 d="m -64.365047,58.098394 c -1.62483,-0.661004 -2.86627,-5.576886 -1.87577,-7.427663 1.55744,-2.910094 3.741222,-3.501412 5.592486,-1.514314 2.082992,2.23583 2.100338,5.79476 0.03829,7.856805 -1.635271,1.635271 -2.084018,1.764956 -3.755006,1.085172 z"
                 style="fill:#b91f2e;stroke-width:0.80000001" />
              <path
                 inkscape:connector-curvature="0"
                 id="path2086"
                 d="m -64.359987,57.98469 c -0.52247,-0.332217 -1.33619,-1.619928 -1.80827,-2.861576 -1.90709,-5.016019 4.026775,-9.70738 6.212025,-4.91128 1.361956,2.989168 1.170899,4.976684 -0.653805,6.801389 -1.741442,1.741442 -2.308139,1.888252 -3.74995,0.971467 z"
                 style="fill:#c61926;stroke-width:0.80000001" />
              <path
                 inkscape:connector-curvature="0"
                 id="path2084"
                 d="m -64.359987,57.98469 c -0.52247,-0.332217 -1.33619,-1.619928 -1.80827,-2.861576 -1.97434,-5.192915 4.180444,-9.767508 6.28984,-4.674976 1.162542,2.806623 0.414486,6.32356 -1.57105,7.386186 -1.723786,0.922542 -1.698209,0.921222 -2.91052,0.150366 z"
                 style="fill:#df0e15;stroke-width:0.80000001" />
              <path
                 inkscape:connector-curvature="0"
                 id="path2082"
                 d="m -64.937267,57.093631 c -1.64643,-1.819279 -1.91366,-5.944246 -0.49577,-7.652695 0.5604,-0.675242 1.846913,-1.227714 2.858914,-1.227714 3.708084,0 4.361828,8.508718 0.75994,9.890893 -1.738576,0.667154 -1.549472,0.728338 -3.123084,-1.010484 z"
                 style="fill:#d91019;stroke-width:0.80000001" />
              <path
                 inkscape:connector-curvature="0"
                 id="path2080"
                 d="m -64.886047,57.15023 c -1.53871,-1.700258 -1.76136,-6.57964 -0.36399,-7.977008 1.338255,-1.338255 3.447337,-1.197071 4.702044,0.314759 1.606045,1.935165 1.335148,6.71003 -0.454948,8.018979 -1.954751,1.42935 -2.295015,1.398091 -3.883106,-0.35673 z"
                 style="fill:#f20508;stroke-width:0.80000001" />
              <path
                 inkscape:connector-curvature="0"
                 id="path2078"
                 d="m -64.886047,57.15023 c -1.53871,-1.700258 -1.76136,-6.57964 -0.36399,-7.977008 1.338255,-1.338255 3.447337,-1.197071 4.702044,0.314759 1.617646,1.949144 1.327543,6.510989 -0.502044,7.89461 -2.017781,1.525942 -2.257932,1.511396 -3.83601,-0.232361 z"
                 style="fill:#eb080c;stroke-width:0.80000001" />
              <path
                 inkscape:transform-center-y="-5"
                 inkscape:transform-center-x="43.25"
                 inkscape:connector-curvature="0"
                 id="path2076"
                 d="m -64.432167,57.367765 c -3.00088,-2.101902 -1.95906,-9.154544 1.352321,-9.154544 3.486571,0 4.829551,5.995814 1.981014,8.844352 -1.43117,1.431169 -1.697527,1.455956 -3.333335,0.310192 z"
                 style="fill:#fe0000;stroke-width:0.80000001" />
            </g>
          </g>
        </g>
      </g>
    </g>
  </g>
  <flowRoot
     xml:space="preserve"
     id="flowRoot3208"
     style="font-style:normal;font-weight:normal;font-size:40px;line-height:1.25;font-family:sans-serif;letter-spacing:0px;word-spacing:0px;fill:#000000;fill-opacity:1;stroke:none"
     transform="translate(142.05323,18.449871)"><flowRegion
       id="flowRegion3210"
       style="fill:#000000"><rect
         id="rect3212"
         width="99"
         height="42.75"
         x="-71.5"
         y="6.2000008"
         style="fill:#000000" /></flowRegion><flowPara
       id="flowPara3214">PASPACEPACE</flowPara></flowRoot>  <flowRoot
     xml:space="preserve"
     id="flowRoot3216"
     style="font-style:normal;font-weight:normal;font-size:40px;line-height:1.25;font-family:sans-serif;letter-spacing:0px;word-spacing:0px;fill:#000000;fill-opacity:1;stroke:none"
     transform="translate(142.05323,18.449871)"><flowRegion
       id="flowRegion3218"><rect
         id="rect3220"
         width="176"
         height="81.25"
         x="-94.25"
         y="-18.049999" /></flowRegion><flowPara
       id="flowPara3222">pacePACE</flowPara></flowRoot>  <text
     xml:space="preserve"
     style="font-style:normal;font-weight:normal;font-size:40px;line-height:1.25;font-family:sans-serif;letter-spacing:0px;word-spacing:0px;fill:#000000;fill-opacity:1;stroke:none"
     x="100.05323"
     y="29.649872"
     id="text3226"><tspan
       sodipodi:role="line"
       id="tspan3224"
       x="100.05323"
       y="65.040497" /></text>
  <text
     xml:space="preserve"
     style="font-style:normal;font-weight:normal;font-size:41.2348175px;line-height:1.25;font-family:sans-serif;letter-spacing:0px;word-spacing:0px;fill:#000000;fill-opacity:1;stroke:none;stroke-width:1.03087044"
     x="72.800156"
     y="51.484463"
     id="text3240"
     transform="scale(0.999998,1.000002)"><tspan
       sodipodi:role="line"
       x="72.800156"
       y="51.484463"
       id="tspan3238"
       style="stroke-width:1.03087044"><tspan
         x="72.800156"
         y="51.484463"
         style="font-style:normal;font-variant:normal;font-weight:bold;font-stretch:normal;font-size:43.98380661px;font-family:Arial;-inkscape-font-specification:'Arial Bold';stroke-width:1.03087044"
         id="tspan3236">PACE</tspan></tspan></text>
</svg>
